<svg width="119" height="26" viewBox="0 0 119 26" fill="none" xmlns="http://www.w3.org/2000/svg">
<path d="M12.9973 21.095C10.9519 21.6916 8.94899 21.5567 8.20325 21.4146C10.2274 23.5455 12.1451 25.8893 15.4477 25.9959C18.0897 26.0811 19.9576 24.8239 20.5613 24.1847L31.8541 13.1045L28.9776 10.0148C27.9833 8.84287 25.3341 6.37113 22.6921 5.85974C20.05 5.34834 17.6849 6.78309 16.8326 7.56438L22.479 13.1045C20.1707 15.5194 15.0428 20.4984 12.9973 21.095Z" fill="#F1592A"/>
<path d="M18.8568 4.90498C20.9023 4.30835 22.9051 4.4433 23.6509 4.58536C21.6267 2.45455 19.7091 0.110654 16.4065 0.00411542C13.7644 -0.0811185 11.8965 1.17606 11.2928 1.8153L2.9253e-05 12.8955L2.87648 15.9852C3.87081 17.1571 6.51999 19.6289 9.16207 20.1403C11.8041 20.6517 14.1692 19.2169 15.0215 18.4356L9.37514 12.8955C11.6834 10.4806 16.8113 5.50161 18.8568 4.90498Z" fill="#F1592A"/>
<path d="M112.714 11.3998L106.535 18.7511H109.412L112.714 14.9157L115.804 18.7511H118.787L112.714 11.3998Z" fill="white"/>
<path d="M43.786 7.24475L37.9266 18.7511H40.59L44.6383 10.7606L48.5801 18.7511H51.2435L45.4906 7.24475H43.786Z" fill="white"/>
<path d="M98.9713 7.24475L93.1119 18.7511H95.7753L99.8236 10.7606L103.765 18.7511H106.429L100.676 7.24475H98.9713Z" fill="white"/>
<path fill-rule="evenodd" clip-rule="evenodd" d="M52.6285 7.24475V18.7511H59.3402C61.0448 18.6801 64.4539 17.4087 64.4539 12.8914C64.4539 8.37408 60.9738 7.24475 59.2337 7.24475H52.6285ZM55.0788 9.4821V16.5138H59.3402C60.228 16.4427 62.0036 15.6188 62.0036 12.8914C62.0036 10.164 60.228 9.4821 59.3402 9.4821H55.0788Z" fill="white"/>
<path d="M66.5846 18.7511V7.24475H76.5989V9.37556H68.9284V11.7195H76.5989V13.9568H68.9284V16.5138H76.5989V18.7511H66.5846Z" fill="white"/>
<path d="M81.393 18.7511H78.8362V7.24475H81.0734L85.2283 13.8503L89.5963 7.24475H91.8335V18.7511H89.3832V12.1456L85.2283 18.1119L81.393 12.1456V18.7511Z" fill="white"/>
<path d="M110.584 12.3587L106.322 7.24475H109.412L112.182 10.654L110.584 12.3587Z" fill="white"/>
<path d="M114.739 12.3587L119 7.24475H115.91L113.141 10.654L114.739 12.3587Z" fill="white"/>
</svg>
