<svg width="32" height="26" viewBox="0 0 32 26" fill="none" xmlns="http://www.w3.org/2000/svg">
<path d="M12.9973 21.095C10.9519 21.6916 8.94899 21.5567 8.20325 21.4146C10.2274 23.5454 12.1451 25.8893 15.4477 25.9959C18.0897 26.0811 19.9576 24.8239 20.5613 24.1847L31.8541 13.1045L28.9776 10.0148C27.9833 8.84284 25.3341 6.3711 22.6921 5.85971C20.05 5.34831 17.6849 6.78306 16.8326 7.56435L22.479 13.1045C20.1707 15.5194 15.0428 20.4984 12.9973 21.095Z" fill="#F1592A"/>
<path d="M18.8568 4.90501C20.9023 4.30838 22.9051 4.44333 23.6509 4.58539C21.6267 2.45458 19.7091 0.110685 16.4065 0.00414594C13.7644 -0.081088 11.8965 1.17609 11.2928 1.81533L2.9253e-05 12.8955L2.87648 15.9852C3.87081 17.1572 6.51999 19.6289 9.16207 20.1403C11.8041 20.6517 14.1692 19.2169 15.0215 18.4356L9.37514 12.8955C11.6834 10.4806 16.8113 5.50164 18.8568 4.90501Z" fill="#F1592A"/>
</svg>
