<svg width="174" height="137" viewBox="0 0 174 137" fill="none" xmlns="http://www.w3.org/2000/svg">
<path fill-rule="evenodd" clip-rule="evenodd" d="M118.462 1.17265C111.109 -1.88236 102.798 1.06328 94.5617 9.64186C92.1798 12.1227 89.7934 15.0839 87.4243 18.5264C82.4745 19.3293 72.9804 23.4 77.697 35.6915C75.2602 40.8084 72.8784 46.4772 70.5785 52.6991C70.4633 53.0107 70.6189 53.3582 70.9259 53.4751C71.2329 53.592 71.5752 53.4342 71.6904 53.1225C73.8382 47.3118 76.0545 41.9952 78.3158 37.1696C78.7202 38.0634 79.1959 38.9974 79.749 39.9732C79.4758 39.9665 79.214 40.1083 79.1047 40.3459C78.6098 41.4226 78.6077 43.077 79.4839 44.474C80.348 45.8517 82.0249 46.9196 84.7297 47.0194C85.4675 50.7235 87.8673 53.8952 90.8768 55.4368C94.0339 57.0539 97.8493 56.8614 101.002 53.6647L100.573 53.2464L101.002 53.6647C103.295 51.3402 104.551 48.3228 105.198 45.2124C105.745 44.7158 106.181 44.0146 106.483 43.1609C106.941 41.8688 107.111 40.1808 106.891 38.1563C106.855 37.8269 106.562 37.5891 106.237 37.6253C106.053 37.6457 105.898 37.7492 105.804 37.8948C105.798 37.5356 105.787 37.1812 105.773 36.8325C106.912 35.4551 107.592 34.1488 108.671 30.1477C111.037 21.3689 107.012 13.2601 98.121 14.1795C95.6558 14.4343 92.149 16.1721 89.6344 18.3897C89.4569 18.3711 89.2393 18.3638 88.9879 18.3698C91.1277 15.3371 93.275 12.7091 95.4121 10.4832C103.501 2.05819 111.315 -0.494314 118.012 2.28823C120.509 3.32574 121.826 5.9868 122.168 9.94409C122.509 13.8839 121.861 18.9195 120.619 24.3627C118.14 35.2374 113.34 47.5531 109.67 55.5757C109.532 55.8776 109.661 56.236 109.958 56.3762C110.256 56.5164 110.609 56.3853 110.747 56.0834C114.436 48.0188 119.271 35.62 121.776 24.6345C123.027 19.1476 123.709 13.9665 123.351 9.83859C122.995 5.7281 121.585 2.47016 118.462 1.17265ZM100.143 52.828C102.03 50.9148 103.173 48.4509 103.829 45.8069C103.688 45.7487 103.569 45.6357 103.505 45.4819C103.379 45.176 103.522 44.8246 103.825 44.6971C103.918 44.6578 104.011 44.609 104.103 44.5504C104.274 43.6513 104.394 42.7385 104.475 41.8259C104.584 40.5834 104.619 39.3498 104.605 38.1628C104.524 38.2526 104.442 38.3449 104.358 38.4403C104.358 37.1491 104.241 35.3808 104.134 33.7705C104.045 32.4242 103.964 31.1882 103.964 30.4338C97.0116 30.4338 91.1444 27.5025 89.0799 26.0368C89.1539 31.0073 84.6426 34.2573 84.6426 34.2573C84.6426 34.2573 85.2896 36.2646 85.6594 40.7573C85.9552 44.3513 85.1047 43.6568 84.6426 42.8601C83.3993 38.7181 81.4142 39.478 80.4041 40.531C80.411 40.6193 80.3959 40.7105 80.3556 40.798C80.0134 41.5424 79.9897 42.8161 80.6644 43.8919C81.3076 44.9172 82.6304 45.8293 85.1489 45.8293C85.4711 45.8293 85.7406 46.0293 85.8081 46.2969C85.8245 46.3373 85.8367 46.3801 85.8441 46.425C86.4252 49.9476 88.6676 52.9601 91.4283 54.3742C94.1495 55.7681 97.385 55.6241 100.143 52.828ZM105.742 41.0095C105.785 40.5948 105.805 40.1469 105.799 39.6663C105.788 40.1102 105.769 40.5585 105.742 41.0095ZM99.8232 57.6717C99.7859 57.8239 99.7383 57.9818 99.6793 58.1452C97.8108 59.5227 93.0431 61.513 89.6929 57.9602C89.6664 57.9095 89.6388 57.847 89.6113 57.7751C84.5155 58.8697 80.7673 60.5748 77.8098 63.0737C75.0689 65.3896 72.9694 68.4192 71.1123 72.3698L118.415 71.7185C114.195 61.3334 104.566 57.8184 99.8232 57.6717ZM99.9081 56.4396C105.21 56.6276 115.645 60.5668 119.881 72.0626C119.948 72.2433 119.924 72.4349 119.832 72.5886C119.888 72.7386 119.919 72.9015 119.919 73.0718V106.807C119.919 106.879 119.913 106.951 119.903 107.02C121.043 107.116 122.356 107.457 123.806 108.493C126.75 110.594 131.147 116.549 125.189 123.557C124.338 124.341 122.062 125.993 119.764 126.335C119.02 126.446 116.165 127.2 112.271 128.279C113.493 129.205 114.274 130.215 114.753 131.113L114.763 131.133L114.772 131.154C115.539 132.904 115.28 134.458 114.249 135.431C113.25 136.375 111.676 136.624 110.106 136.131L110.106 136.13C109.3 135.877 108.768 135.654 108.322 135.392C107.911 135.15 107.588 134.883 107.219 134.578L107.219 134.578L107.137 134.509L107.136 134.509C106.742 134.183 105.121 132.683 103.186 130.839C96.4037 132.773 89.0128 134.917 84.0179 136.378C81.9257 134.918 77.9753 130.438 78.9114 124.198C86.0898 120.501 98.5182 114.37 107.749 110.514H85.7657C89.767 112.107 93.6339 113.73 96.4054 114.957L78.5965 124.145C70.6264 126.558 65.7303 125.763 64.235 125.243C55.604 120.95 58.9856 110.358 62.4149 106.434C64.1884 104.876 66.1106 104.626 67.4984 104.635L65.8399 73.8542C65.7983 73.0846 66.3927 72.4347 67.1473 72.4244L69.7682 72.3883C71.7394 68.0512 74.0044 64.6681 77.058 62.088C80.2029 59.4307 84.1405 57.662 89.3561 56.5399C89.3301 56.0488 89.4065 55.5697 89.6929 55.3184C91.4324 56.9632 96.1228 57.9707 99.2154 55.2568C99.5161 55.3767 99.8212 55.7941 99.9081 56.4396ZM104.522 130.458C106.225 132.075 107.574 133.319 107.9 133.589L107.961 133.639C108.352 133.962 108.603 134.171 108.929 134.362C109.267 134.56 109.704 134.751 110.466 134.991C111.733 135.389 112.82 135.136 113.427 134.563C113.999 134.022 114.29 133.053 113.685 131.654C113.199 130.749 112.313 129.653 110.767 128.697C108.845 129.233 106.727 129.831 104.522 130.458ZM127.881 63.5585C128.142 63.702 128.227 64.0119 128.07 64.2508L125.646 67.9443C125.489 68.1832 125.151 68.2606 124.889 68.1171C124.628 67.9737 124.544 67.6638 124.7 67.4249L127.124 63.7314C127.281 63.4925 127.62 63.4151 127.881 63.5585ZM131.462 67.0343C131.713 66.7959 131.748 66.3696 131.54 66.0822C131.332 65.7949 130.96 65.7552 130.709 65.9936L127.186 69.3441C126.935 69.5825 126.901 70.0088 127.109 70.2961C127.317 70.5835 127.689 70.6232 127.94 70.3847L131.462 67.0343ZM131.454 70.5987C131.683 70.7047 131.745 70.9194 131.592 71.0783C131.165 71.5219 130.51 71.6798 129.932 71.7103C129.362 71.7402 128.812 71.6518 128.468 71.5594C128.211 71.4905 128.083 71.2903 128.182 71.1121C128.282 70.934 128.571 70.8455 128.828 70.9144C129.064 70.9778 129.464 71.0412 129.856 71.0206C130.24 71.0004 130.559 70.9052 130.762 70.6945C130.915 70.5356 131.224 70.4927 131.454 70.5987ZM56.1792 62.51C55.9729 62.2503 55.6331 62.2437 55.4201 62.4951C55.2072 62.7465 55.2017 63.1608 55.4079 63.4204L59.0371 67.99C59.2433 68.2496 59.5831 68.2563 59.7961 68.0049C60.009 67.7535 60.0145 67.3392 59.8083 67.0795L56.1792 62.51ZM61.5073 59.9978C61.8072 59.885 62.1444 60.0296 62.2606 60.3209L64.6227 66.2436C64.7388 66.5349 64.5899 66.8624 64.29 66.9752C63.9901 67.088 63.6529 66.9433 63.5367 66.6521L61.1746 60.7293C61.0584 60.4381 61.2074 60.1106 61.5073 59.9978ZM55.9319 68.2281C55.6741 68.1109 55.3864 68.2675 55.289 68.5778C55.1917 68.8881 55.3218 69.2346 55.5795 69.3518L58.1087 70.5017C58.3664 70.6188 58.6542 70.4622 58.7515 70.1519C58.8488 69.8416 58.7188 69.4951 58.4611 69.3779L55.9319 68.2281ZM121.403 78.8659C121.713 78.6851 122.125 78.7682 122.323 79.0514C123.71 81.0326 125.275 83.312 125.691 86.2526C126.109 89.2139 125.355 92.7572 122.331 97.289C122.139 97.576 121.729 97.667 121.415 97.4923C121.1 97.3176 121 96.9434 121.192 96.6564C124.103 92.2943 124.739 89.0272 124.368 86.4082C123.995 83.7686 122.593 81.6979 121.199 79.7059C121.001 79.4227 121.092 79.0466 121.403 78.8659ZM102.071 61.2846C102.327 61.5077 102.356 61.8995 102.137 62.1596L99.1173 65.7441C97.7962 67.3123 95.6391 67.8481 93.7565 67.0756L91.1277 65.9972C89.571 65.3585 87.788 65.9298 86.872 67.3604L85.7689 69.0831C85.5851 69.3702 85.2074 69.4512 84.9254 69.2641C84.6434 69.0769 84.5638 68.6925 84.7476 68.4054L85.8507 66.6827C87.0849 64.7552 89.4868 63.9858 91.5834 64.8461L94.2122 65.9245C95.6099 66.498 97.2113 66.1002 98.192 64.9362L101.212 61.3517C101.431 61.0916 101.815 61.0615 102.071 61.2846ZM64.6517 83.101C64.7878 82.8074 64.6384 82.4682 64.3181 82.3434C63.9979 82.2187 63.6279 82.3556 63.4919 82.6493C62.93 83.8624 62.3277 85.9058 62.3112 88.1578C62.2945 90.4129 62.866 92.9286 64.7191 95.0166C64.9387 95.2641 65.3355 95.3015 65.6054 95.1001C65.8753 94.8987 65.9161 94.5348 65.6964 94.2873C64.0849 92.4714 63.5559 90.2483 63.5712 88.1656C63.5866 86.08 64.1487 84.187 64.6517 83.101ZM82.8907 41.7261C83.0191 41.4832 82.7453 41.2321 82.2792 41.1651C81.813 41.0982 81.331 41.2409 81.2026 41.4838C80.935 41.9901 81.2488 42.9198 83.3949 43.4552C83.831 43.564 84.3538 43.4679 84.5626 43.2407C84.7714 43.0134 84.5871 42.741 84.151 42.6322C82.7818 42.2906 82.8446 41.8135 82.8907 41.7261ZM98.4909 48.2859C98.8035 48.0351 98.8466 47.5866 98.5873 47.2842C98.328 46.9818 97.8644 46.9401 97.5518 47.1909C97.1319 47.528 96.8304 47.8736 96.5908 48.1756C96.4939 48.2978 96.4155 48.4008 96.3468 48.4912C96.229 48.6461 96.1394 48.7639 96.0326 48.8781C95.8929 49.0274 95.7976 49.0825 95.6996 49.1087C95.5893 49.1381 95.3803 49.1552 94.9751 49.053C94.5821 48.9539 94.1805 49.1817 94.078 49.5619C93.9756 49.942 94.2111 50.3306 94.6041 50.4297C95.1519 50.5679 95.6425 50.5998 96.0908 50.4801C96.5515 50.3572 96.8738 50.0992 97.1231 49.8327C97.2789 49.6662 97.4418 49.4528 97.588 49.2614L97.5882 49.2611L97.5882 49.2611L97.5884 49.2609L97.5888 49.2604C97.6484 49.1822 97.7053 49.1077 97.7577 49.0417C97.9619 48.7842 98.1877 48.5292 98.4909 48.2859ZM99.9324 41.1487C100.582 41.1487 101.108 40.6223 101.108 39.973C101.108 39.3237 100.582 38.7973 99.9324 38.7973C99.2831 38.7973 98.7568 39.3237 98.7568 39.973C98.7568 40.6223 99.2831 41.1487 99.9324 41.1487ZM91.7027 40.5608C91.7027 40.8855 91.4395 41.1486 91.1149 41.1486C90.7902 41.1486 90.527 40.8855 90.527 40.5608C90.527 40.2362 90.7902 39.973 91.1149 39.973C91.4395 39.973 91.7027 40.2362 91.7027 40.5608ZM92.101 37.5514C90.3115 37.2778 89.5937 38.1026 89.4503 38.4411C89.334 38.7156 88.9622 38.8625 88.6199 38.7692C88.2776 38.676 88.0943 38.3778 88.2106 38.1033C88.5328 37.3428 89.8244 36.1344 92.3463 36.5201C92.7014 36.5744 92.9344 36.8493 92.8667 37.1341C92.7989 37.4189 92.4562 37.6057 92.101 37.5514ZM98.6642 37.4239C99.0242 37.0383 100.084 36.4312 101.246 37.4684C101.539 37.7302 101.948 37.6483 102.16 37.2855C102.372 36.9228 102.305 36.4165 102.012 36.1548C100.213 34.5486 98.4756 35.4834 97.8072 36.1993C97.5339 36.4921 97.5042 37.0036 97.7408 37.3418C97.9775 37.68 98.3909 37.7167 98.6642 37.4239ZM95.0309 38.8019C95.4434 38.8442 95.7382 39.1696 95.6895 39.5285C95.5939 40.2333 95.5156 41.2918 95.5835 42.1777C95.6178 42.6262 95.6868 42.9863 95.7838 43.2252C95.8216 43.3183 95.8531 43.3693 95.8722 43.395C96.2322 43.4899 96.4615 43.8065 96.3935 44.1366C96.3202 44.4924 95.9294 44.7291 95.5207 44.6653C94.8309 44.5577 94.513 44.0236 94.3659 43.6614C94.2011 43.2556 94.1206 42.7565 94.0829 42.2648C94.0067 41.2706 94.0942 40.1257 94.196 39.375C94.2447 39.0161 94.6185 38.7595 95.0309 38.8019ZM95.8923 43.4176C95.8922 43.4178 95.8904 43.4164 95.8871 43.4129C95.8907 43.4156 95.8923 43.4174 95.8923 43.4176ZM147.099 78.8208C146.791 78.6855 146.434 78.8313 146.302 79.1464C146.17 79.4615 146.312 79.8266 146.62 79.9618C157.677 84.8177 164.541 90.3119 169.185 94.9894C171.013 97.1568 172.065 98.913 172.519 100.311C172.968 101.694 172.818 102.669 172.325 103.384C171.809 104.133 170.834 104.726 169.377 105.131C167.931 105.533 166.093 105.726 163.964 105.743C155.433 105.813 142.74 103.054 133.62 100.469C133.297 100.378 132.963 100.571 132.874 100.902C132.784 101.232 132.973 101.574 133.296 101.666C142.433 104.256 155.264 107.056 163.974 106.985C166.155 106.967 168.109 106.77 169.695 106.329C171.27 105.892 172.565 105.191 173.317 104.1C174.091 102.976 174.205 101.564 173.671 99.9196C173.143 98.2943 171.97 96.3878 170.088 94.1587L170.072 94.1398L170.054 94.1223C165.31 89.3407 158.319 83.7481 147.099 78.8208ZM126.082 49.886C131.873 46.2664 147.735 39.5534 165.126 41.4938C169.45 41.9762 171.926 43.3114 172.626 45.49C172.972 46.5643 172.842 47.737 172.416 48.9216C171.989 50.1062 171.251 51.3497 170.309 52.6075C166.555 57.6187 159.257 63.2608 153.713 66.9172C153.438 67.0988 153.072 67.0161 152.896 66.7325C152.719 66.449 152.8 66.072 153.075 65.8904C158.6 62.2465 165.75 56.6977 169.372 51.8627C170.273 50.6588 170.936 49.5248 171.306 48.4977C171.676 47.4706 171.736 46.5974 171.503 45.8735C171.047 44.4556 169.29 43.1847 164.999 42.7059C147.931 40.8016 132.329 47.4078 126.696 50.9283C126.417 51.103 126.053 51.0112 125.883 50.7233C125.714 50.4355 125.803 50.0606 126.082 49.886ZM22.591 28.3445C33.6896 30.8892 46.5186 36.6737 54.9415 41.2219C55.2351 41.3805 55.3429 41.744 55.1823 42.0338C55.0216 42.3236 54.6533 42.43 54.3597 42.2714C45.9825 37.7479 33.2631 32.0196 22.3167 29.5097C16.8335 28.2525 11.8712 27.8214 8.13968 28.696C6.28366 29.1311 4.75875 29.883 3.61927 30.9925C2.48429 32.0977 1.69565 33.5924 1.36547 35.5786C0.706533 39.5422 2.21159 43.3905 5.21802 47.056C8.2272 50.7247 12.6985 54.1545 17.8363 57.2382C28.1084 63.4036 40.9061 68.1043 49.5584 70.5428C49.8803 70.6335 50.0667 70.9645 49.9748 71.2822C49.8829 71.5998 49.5475 71.7838 49.2256 71.6931C40.5087 69.2364 27.601 64.4992 17.2065 58.2604C12.011 55.142 7.4087 51.6281 4.27592 47.8087C1.14039 43.9859 -0.564889 39.8015 0.169354 35.3849C0.535757 33.1809 1.4284 31.4453 2.76798 30.1409C4.10306 28.841 5.84597 28.0041 7.8596 27.5321C11.8674 26.5927 17.0517 27.0744 22.591 28.3445ZM53.7563 79.9286C54.0489 79.7751 54.1652 79.4063 54.0162 79.1049C53.8671 78.8034 53.5091 78.6836 53.2166 78.8372C41.1996 85.1448 27.5975 92.6924 19.0878 99.8196C14.8542 103.365 11.7652 106.899 10.8571 110.212C10.3941 111.9 10.4942 113.546 11.3051 115.079C12.1068 116.594 13.5698 117.935 15.7167 119.105C17.5258 120.091 19.99 120.658 22.7482 120.919C25.5169 121.18 28.6299 121.138 31.7691 120.873C38.0381 120.344 44.4828 118.92 48.5755 117.199C48.8795 117.072 49.0253 116.714 48.9013 116.401C48.7772 116.088 48.4302 115.937 48.1262 116.065C44.1801 117.724 37.8632 119.129 31.672 119.652C28.5811 119.913 25.5395 119.952 22.8568 119.699C20.1637 119.444 17.88 118.899 16.2728 118.022C14.2468 116.918 13.0002 115.723 12.349 114.492C11.707 113.279 11.6107 111.969 12.0013 110.545C12.8003 107.63 15.6182 104.304 19.8378 100.77C28.2344 93.7376 41.7238 86.2444 53.7563 79.9286Z" fill="#321F18"/>
</svg>
