<svg width="165" height="120" viewBox="0 0 165 120" fill="none" xmlns="http://www.w3.org/2000/svg">
<path d="M126.186 111.829C121.187 107.783 127.96 107.307 131.971 107.576V110.219L141.575 112.633C138.528 114.051 131.185 115.875 126.186 111.829Z" fill="#321F18"/>
<path d="M152.452 109.415C149.212 109.783 148.248 108.342 148.17 107.576H155.113C155.576 108.035 155.692 109.047 152.452 109.415Z" fill="#321F18"/>
<path fill-rule="evenodd" clip-rule="evenodd" d="M136.139 97.7597C136.164 97.4433 136.443 97.2073 136.761 97.2327C137.273 97.2733 137.754 97.3138 138.219 97.353C140.399 97.5364 142.23 97.6906 145.162 97.6906C145.482 97.6906 145.741 97.9479 145.741 98.2653C145.741 98.5827 145.482 98.84 145.162 98.84C142.178 98.84 140.298 98.6816 138.113 98.4976C137.65 98.4586 137.173 98.4185 136.669 98.3784C136.351 98.3531 136.113 98.0761 136.139 97.7597Z" fill="#321F18"/>
<path fill-rule="evenodd" clip-rule="evenodd" d="M147.939 99.0699C148.259 99.0699 148.518 99.3272 148.518 99.6446V110.679C148.518 110.997 148.259 111.254 147.939 111.254C147.62 111.254 147.361 110.997 147.361 110.679V99.6446C147.361 99.3272 147.62 99.0699 147.939 99.0699Z" fill="#321F18"/>
<path fill-rule="evenodd" clip-rule="evenodd" d="M131.394 99.6012C131.419 99.2847 131.696 99.0476 132.015 99.0715L139.652 99.6463C139.97 99.6702 140.209 99.9462 140.185 100.263C140.161 100.579 139.883 100.816 139.564 100.792L131.928 100.218C131.609 100.194 131.37 99.9177 131.394 99.6012Z" fill="#321F18"/>
<path fill-rule="evenodd" clip-rule="evenodd" d="M143.195 100.794C143.515 100.794 143.774 101.051 143.774 101.369V112.518C143.774 112.836 143.515 113.093 143.195 113.093C142.875 113.093 142.616 112.836 142.616 112.518V101.369C142.616 101.051 142.875 100.794 143.195 100.794Z" fill="#321F18"/>
<path fill-rule="evenodd" clip-rule="evenodd" d="M148.475 110.578C148.595 110.873 148.452 111.208 148.156 111.327L143.296 113.281C143 113.4 142.663 113.258 142.543 112.964C142.423 112.669 142.566 112.334 142.862 112.215L147.722 110.261C148.018 110.142 148.355 110.284 148.475 110.578Z" fill="#321F18"/>
<path fill-rule="evenodd" clip-rule="evenodd" d="M137.137 97.5921C137.255 97.8868 137.111 98.2213 136.815 98.3391L132.186 100.178C131.89 100.296 131.553 100.153 131.434 99.8581C131.315 99.5634 131.46 99.2289 131.756 99.111L136.385 97.2719C136.681 97.154 137.018 97.2974 137.137 97.5921Z" fill="#321F18"/>
<path fill-rule="evenodd" clip-rule="evenodd" d="M131.856 99.1848C132.175 99.1848 132.434 99.4422 132.434 99.7596V110.334C132.434 110.652 132.175 110.909 131.856 110.909C131.536 110.909 131.277 110.652 131.277 110.334V99.7596C131.277 99.4422 131.536 99.1848 131.856 99.1848Z" fill="#321F18"/>
<path fill-rule="evenodd" clip-rule="evenodd" d="M131.175 110.093C131.245 109.784 131.555 109.589 131.867 109.659L143.206 112.187C143.518 112.257 143.714 112.564 143.644 112.874C143.574 113.184 143.264 113.378 142.953 113.309L131.613 110.78C131.301 110.711 131.105 110.403 131.175 110.093Z" fill="#321F18"/>
<path fill-rule="evenodd" clip-rule="evenodd" d="M145.162 94.7021C145.482 94.7021 145.741 94.9594 145.741 95.2768V98.4952C145.741 98.8126 145.482 99.0699 145.162 99.0699C144.843 99.0699 144.584 98.8126 144.584 98.4952V95.2768C144.584 94.9594 144.843 94.7021 145.162 94.7021Z" fill="#321F18"/>
<path fill-rule="evenodd" clip-rule="evenodd" d="M155.229 95.7366C155.548 95.7366 155.807 95.9939 155.807 96.3113V107.461C155.807 107.778 155.548 108.035 155.229 108.035C154.909 108.035 154.65 107.778 154.65 107.461V96.3113C154.65 95.9939 154.909 95.7366 155.229 95.7366Z" fill="#321F18"/>
<path fill-rule="evenodd" clip-rule="evenodd" d="M160.667 92.0584C160.986 92.0584 161.246 92.3157 161.246 92.6331V105.047C161.246 105.364 160.986 105.622 160.667 105.622C160.347 105.622 160.088 105.364 160.088 105.047V92.6331C160.088 92.3157 160.347 92.0584 160.667 92.0584Z" fill="#321F18"/>
<path fill-rule="evenodd" clip-rule="evenodd" d="M161.187 104.794C161.327 105.079 161.208 105.424 160.921 105.563L155.483 108.207C155.196 108.346 154.849 108.228 154.709 107.943C154.569 107.658 154.687 107.314 154.974 107.174L160.413 104.531C160.7 104.391 161.046 104.509 161.187 104.794Z" fill="#321F18"/>
<path fill-rule="evenodd" clip-rule="evenodd" d="M147.824 92.0367C147.836 91.7196 148.104 91.4721 148.424 91.4841L160.689 91.9439C161.008 91.9558 161.257 92.2227 161.245 92.5399C161.233 92.857 160.964 93.1045 160.645 93.0925L148.38 92.6327C148.061 92.6207 147.812 92.3539 147.824 92.0367Z" fill="#321F18"/>
<path fill-rule="evenodd" clip-rule="evenodd" d="M148.811 91.652C149.037 91.8765 149.037 92.2404 148.811 92.4648L145.571 95.6832C145.345 95.9076 144.979 95.9076 144.753 95.6832C144.527 95.4587 144.527 95.0949 144.753 94.8704L147.993 91.652C148.219 91.4276 148.585 91.4276 148.811 91.652Z" fill="#321F18"/>
<path fill-rule="evenodd" clip-rule="evenodd" d="M161.036 92.4341C161.21 92.7 161.135 93.0561 160.867 93.2295L155.545 96.6777C155.277 96.8511 154.919 96.7762 154.744 96.5103C154.57 96.2444 154.645 95.8883 154.913 95.715L160.235 92.2667C160.503 92.0933 160.861 92.1683 161.036 92.4341Z" fill="#321F18"/>
<path fill-rule="evenodd" clip-rule="evenodd" d="M147.823 107.461C147.823 107.143 148.082 106.886 148.402 106.886H155.229C155.548 106.886 155.807 107.143 155.807 107.461C155.807 107.778 155.548 108.035 155.229 108.035H148.402C148.082 108.035 147.823 107.778 147.823 107.461Z" fill="#321F18"/>
<path fill-rule="evenodd" clip-rule="evenodd" d="M144.7 95.2566C144.711 94.9394 144.979 94.6913 145.298 94.7024L151.893 94.9323C152.213 94.9435 152.463 95.2096 152.451 95.5268C152.44 95.8441 152.172 96.0922 151.853 96.081L145.257 95.8512C144.938 95.84 144.688 95.5739 144.7 95.2566Z" fill="#321F18"/>
<path d="M52.8192 116.667C52.9349 113.448 65.8942 114.483 66.7042 114.598V116.667L70.6383 119.425C64.6599 119.579 52.7266 119.241 52.8192 116.667Z" fill="#321F18"/>
<path fill-rule="evenodd" clip-rule="evenodd" d="M84.9859 104.023C85.3054 104.023 85.5644 104.28 85.5644 104.598V116.322C85.5644 116.639 85.3054 116.897 84.9859 116.897C84.6664 116.897 84.4073 116.639 84.4073 116.322V104.598C84.4073 104.28 84.6664 104.023 84.9859 104.023Z" fill="#321F18"/>
<path fill-rule="evenodd" clip-rule="evenodd" d="M74.9193 105.862C75.2388 105.862 75.4978 106.119 75.4978 106.437V119.31C75.4978 119.628 75.2388 119.885 74.9193 119.885C74.5997 119.885 74.3407 119.628 74.3407 119.31V106.437C74.3407 106.119 74.5997 105.862 74.9193 105.862Z" fill="#321F18"/>
<path fill-rule="evenodd" clip-rule="evenodd" d="M66.5883 102.874C66.9078 102.874 67.1668 103.131 67.1668 103.448V116.322C67.1668 116.639 66.9078 116.897 66.5883 116.897C66.2687 116.897 66.0097 116.639 66.0097 116.322V103.448C66.0097 103.131 66.2687 102.874 66.5883 102.874Z" fill="#321F18"/>
<path fill-rule="evenodd" clip-rule="evenodd" d="M76.2901 101.008C76.3685 101.316 76.1809 101.629 75.8712 101.707L66.7302 104.005C66.4205 104.083 66.1058 103.897 66.0274 103.589C65.949 103.282 66.1365 102.969 66.4463 102.891L75.5872 100.592C75.897 100.514 76.2116 100.701 76.2901 101.008Z" fill="#321F18"/>
<path fill-rule="evenodd" clip-rule="evenodd" d="M85.5549 104.379C85.6127 104.691 85.4048 104.991 85.0905 105.048L75.0239 106.887C74.7097 106.944 74.4081 106.738 74.3503 106.426C74.2925 106.114 74.5004 105.814 74.8146 105.757L84.8812 103.918C85.1955 103.86 85.4971 104.067 85.5549 104.379Z" fill="#321F18"/>
<path fill-rule="evenodd" clip-rule="evenodd" d="M85.5402 116.272C85.6317 116.576 85.4577 116.897 85.1515 116.987L75.0849 119.976C74.7788 120.067 74.4564 119.894 74.3649 119.59C74.2734 119.286 74.4475 118.966 74.7536 118.875L84.8202 115.886C85.1264 115.795 85.4487 115.968 85.5402 116.272Z" fill="#321F18"/>
<path fill-rule="evenodd" clip-rule="evenodd" d="M75.1853 100.954C75.2942 100.655 75.626 100.501 75.9264 100.609L85.1831 103.942C85.4834 104.051 85.6387 104.38 85.5298 104.679C85.4209 104.977 85.0891 105.131 84.7887 105.023L75.5321 101.69C75.2317 101.582 75.0764 101.252 75.1853 100.954Z" fill="#321F18"/>
<path fill-rule="evenodd" clip-rule="evenodd" d="M66.0387 103.384C66.1385 103.082 66.4654 102.918 66.769 103.017L75.2157 105.776C75.5192 105.875 75.6844 106.2 75.5846 106.501C75.4848 106.803 75.1578 106.967 74.8543 106.868L66.4076 104.109C66.104 104.01 65.9389 103.685 66.0387 103.384Z" fill="#321F18"/>
<path d="M96.2663 116.092C94.1372 112.414 100.933 111.877 104.597 112.069V114.713L116.515 116.092C110.653 117.624 98.3953 119.77 96.2663 116.092Z" fill="#321F18"/>
<path fill-rule="evenodd" clip-rule="evenodd" d="M122.82 110.738C123.049 110.96 123.053 111.323 122.83 111.551L118.318 116.148C118.095 116.376 117.728 116.38 117.5 116.159C117.271 115.937 117.266 115.573 117.489 115.346L122.002 110.748C122.225 110.521 122.591 110.516 122.82 110.738Z" fill="#321F18"/>
<path fill-rule="evenodd" clip-rule="evenodd" d="M104.598 100.88C104.621 100.563 104.897 100.324 105.216 100.346L116.902 101.151C117.221 101.173 117.461 101.447 117.439 101.764C117.417 102.081 117.141 102.319 116.822 102.297L105.136 101.493C104.817 101.471 104.576 101.196 104.598 100.88Z" fill="#321F18"/>
<path fill-rule="evenodd" clip-rule="evenodd" d="M109.342 97.9045C109.356 97.5874 109.627 97.3423 109.946 97.3569L122.443 97.9317C122.762 97.9463 123.009 98.2153 122.994 98.5323C122.979 98.8494 122.709 99.0945 122.389 99.0799L109.893 98.5051C109.574 98.4905 109.327 98.2215 109.342 97.9045Z" fill="#321F18"/>
<path fill-rule="evenodd" clip-rule="evenodd" d="M104.969 100.345C105.288 100.359 105.536 100.627 105.522 100.944L104.944 114.278C104.93 114.595 104.66 114.841 104.341 114.827C104.021 114.813 103.774 114.545 103.788 114.228L104.366 100.895C104.38 100.578 104.65 100.332 104.969 100.345Z" fill="#321F18"/>
<path fill-rule="evenodd" clip-rule="evenodd" d="M122.416 98.1609C122.736 98.1609 122.995 98.4182 122.995 98.7356V110.92C122.995 111.237 122.736 111.494 122.416 111.494C122.097 111.494 121.838 111.237 121.838 110.92V98.7356C121.838 98.4182 122.097 98.1609 122.416 98.1609Z" fill="#321F18"/>
<path fill-rule="evenodd" clip-rule="evenodd" d="M117.904 105.402C118.223 105.402 118.482 105.66 118.482 105.977V115.747C118.482 116.065 118.223 116.322 117.904 116.322C117.584 116.322 117.325 116.065 117.325 115.747V105.977C117.325 105.66 117.584 105.402 117.904 105.402Z" fill="#321F18"/>
<path fill-rule="evenodd" clip-rule="evenodd" d="M110.415 97.6337C110.58 97.9053 110.492 98.2586 110.219 98.4229L105.244 101.411C104.97 101.576 104.614 101.489 104.449 101.217C104.284 100.945 104.371 100.592 104.645 100.428L109.62 97.4393C109.894 97.275 110.249 97.3621 110.415 97.6337Z" fill="#321F18"/>
<path fill-rule="evenodd" clip-rule="evenodd" d="M103.674 114.31C103.707 113.994 103.991 113.764 104.308 113.796L117.962 115.175C118.28 115.208 118.511 115.49 118.479 115.805C118.447 116.121 118.163 116.351 117.845 116.319L104.191 114.94C103.874 114.907 103.642 114.625 103.674 114.31Z" fill="#321F18"/>
<path fill-rule="evenodd" clip-rule="evenodd" d="M96.7189 30.8046C95.5826 30.2402 94.4141 30.3757 94.0237 30.495C93.7183 30.5884 93.3946 30.4182 93.3006 30.1148C93.2066 29.8115 93.378 29.4898 93.6833 29.3965C94.2959 29.2092 95.7808 29.0536 97.2364 29.7765C97.5222 29.9185 97.638 30.2637 97.4951 30.5476C97.3522 30.8315 97.0047 30.9466 96.7189 30.8046Z" fill="#321F18"/>
<path d="M89.2252 35.9228C90.1199 35.9228 90.8451 35.1508 90.8451 34.1986C90.8451 33.2464 90.1199 32.4745 89.2252 32.4745C88.3306 32.4745 87.6053 33.2464 87.6053 34.1986C87.6053 35.1508 88.3306 35.9228 89.2252 35.9228Z" fill="#321F18"/>
<path d="M102.416 38.2216C103.311 38.2216 104.036 37.4497 104.036 36.4975C104.036 35.5453 103.311 34.7733 102.416 34.7733C101.521 34.7733 100.796 35.5453 100.796 36.4975C100.796 37.4497 101.521 38.2216 102.416 38.2216Z" fill="#321F18"/>
<path fill-rule="evenodd" clip-rule="evenodd" d="M86.3879 30.565C86.0625 30.8654 85.9041 31.2687 85.8626 31.5296C85.8128 31.8431 85.5165 32.0572 85.2009 32.0077C84.8853 31.9582 84.6698 31.6639 84.7197 31.3504C84.7939 30.8833 85.052 30.2291 85.6002 29.723C86.1714 29.1957 87.0141 28.8708 88.1499 29.032C88.4662 29.0769 88.686 29.368 88.6408 29.6822C88.5957 29.9964 88.3026 30.2147 87.9863 30.1699C87.1783 30.0552 86.6903 30.2858 86.3879 30.565Z" fill="#321F18"/>
<path fill-rule="evenodd" clip-rule="evenodd" d="M102.388 30.7524C101.595 30.8729 100.883 31.2945 100.483 31.6426C100.242 31.8517 99.8768 31.8274 99.6664 31.5886C99.456 31.3497 99.4803 30.9866 99.7208 30.7776C100.246 30.3211 101.154 29.7772 102.213 29.6162C103.304 29.4502 104.541 29.6971 105.612 30.8138C105.832 31.0436 105.823 31.4074 105.592 31.6263C105.361 31.8452 104.994 31.8363 104.774 31.6065C103.993 30.7921 103.148 30.6367 102.388 30.7524Z" fill="#321F18"/>
<path fill-rule="evenodd" clip-rule="evenodd" d="M94.8255 32.6732C95.0984 32.5082 95.4544 32.5942 95.6205 32.8653C96.1826 33.7826 96.8715 35.2427 97.0758 36.639C97.1782 37.3387 97.1663 38.0714 96.9106 38.7223C96.646 39.3957 96.1356 39.9394 95.3379 40.2508L95.331 40.2535L94.0513 40.7158C93.751 40.8242 93.419 40.6703 93.3098 40.372C93.2006 40.0737 93.3555 39.744 93.6558 39.6355L94.9213 39.1784C95.4153 38.9839 95.6862 38.6771 95.8327 38.3043C95.9887 37.9073 96.0173 37.3957 95.9308 36.8043C95.7572 35.6182 95.1501 34.3082 94.6321 33.463C94.466 33.1918 94.5526 32.8383 94.8255 32.6732Z" fill="#321F18"/>
<path fill-rule="evenodd" clip-rule="evenodd" d="M90.5294 43.1996C90.8292 43.0898 91.1618 43.2423 91.2723 43.5401C91.3695 43.8022 91.6092 44.1522 91.9807 44.3371C92.3181 44.505 92.8621 44.5857 93.7008 44.1493C93.9838 44.002 94.3335 44.1106 94.4817 44.3917C94.63 44.6729 94.5207 45.0202 94.2377 45.1675C93.1325 45.7426 92.1916 45.7276 91.4625 45.3648C90.7677 45.0191 90.3594 44.4036 90.1866 43.9376C90.0761 43.6397 90.2296 43.3093 90.5294 43.1996Z" fill="#321F18"/>
<path d="M53.4711 26.8423C49.6759 39.2561 60.2206 48.26 65.9676 51.2101C71.1513 48.0837 78.5412 46.4975 81.7039 46.0377C77.7698 42.8193 76.5741 36.9189 76.2656 34.1986C74.1829 34.8883 68.6289 32.2446 71.1745 26.8423C73.2109 22.5205 75.417 24.7349 76.2656 26.3825L81.9353 28.9113C81.9353 23.6699 85.5607 21.8998 87.3736 21.6699C88.4844 20.9343 89.6878 18.528 90.1506 17.417C90.706 21.7389 96.3989 24.8883 99.1759 25.9228C102.786 23.0722 105.694 24.7349 106.697 25.9228L109.243 25.5779C114.218 23.8922 123.151 18.1297 119.078 8.56644C115.005 -0.996788 106.581 0.750338 102.879 2.81931C90.1969 -5.54851 77.4611 6.68897 72.6787 13.8538C67.8573 13.0108 57.2663 14.4285 53.4711 26.8423Z" fill="#321F18"/>
<path fill-rule="evenodd" clip-rule="evenodd" d="M75.7528 25.8872C75.9004 25.6057 76.2497 25.4963 76.5331 25.6429L82.0871 28.5165C82.3705 28.6631 82.4806 29.0102 82.333 29.2917C82.1854 29.5732 81.836 29.6826 81.5526 29.5359L75.9986 26.6624C75.7152 26.5157 75.6052 26.1687 75.7528 25.8872Z" fill="#321F18"/>
<path fill-rule="evenodd" clip-rule="evenodd" d="M87.8367 22.3595C85.0659 22.3595 82.5141 25.0595 82.5141 28.7963C82.5141 32.533 85.0659 35.2331 87.8367 35.2331C90.6075 35.2331 93.1593 32.533 93.1593 28.7963C93.1593 25.0595 90.6075 22.3595 87.8367 22.3595ZM81.357 28.7963C81.357 24.604 84.2602 21.2101 87.8367 21.2101C91.4132 21.2101 94.3164 24.604 94.3164 28.7963C94.3164 32.9884 91.4132 36.3825 87.8367 36.3825C84.2602 36.3825 81.357 32.9884 81.357 28.7963Z" fill="#321F18"/>
<path fill-rule="evenodd" clip-rule="evenodd" d="M103.11 24.8883C100.339 24.8883 97.7876 27.5882 97.7876 31.3251C97.7876 35.0617 100.339 37.7618 103.11 37.7618C105.881 37.7618 108.433 35.0617 108.433 31.3251C108.433 27.5882 105.881 24.8883 103.11 24.8883ZM96.6305 31.3251C96.6305 27.1327 99.5337 23.7389 103.11 23.7389C106.687 23.7389 109.59 27.1327 109.59 31.3251C109.59 35.5172 106.687 38.9113 103.11 38.9113C99.5337 38.9113 96.6305 35.5172 96.6305 31.3251Z" fill="#321F18"/>
<path d="M109.243 53.4825C118.129 46.4021 113.061 36.8543 109.358 32.9078C107.322 42.471 102.609 46.586 100.565 47.5055L103.804 49.2297L109.243 53.4825Z" fill="#321F18"/>
<path fill-rule="evenodd" clip-rule="evenodd" d="M76.9529 26.6404C77.2706 27.3744 77.4813 28.1429 77.5363 28.7443C77.5652 29.0604 77.3307 29.34 77.0125 29.3687C76.6943 29.3974 76.4129 29.1644 76.384 28.8483C76.3426 28.396 76.1724 27.7469 75.8899 27.0945C75.6067 26.4401 75.2345 25.8383 74.8238 25.4464C74.4152 25.0567 74.0503 24.9425 73.7122 25.031C73.3329 25.1302 72.783 25.5304 72.1449 26.6588C71.606 27.6603 71.1702 29.1917 71.5109 30.567C71.678 31.242 72.0331 31.888 72.673 32.4367C73.3174 32.9894 74.2777 33.466 75.6868 33.7504C75.9999 33.8135 76.2022 34.1169 76.1386 34.428C76.075 34.739 75.7696 34.94 75.4565 34.8768C73.9034 34.5634 72.7463 34.018 71.9169 33.3068C71.0829 32.5916 70.6078 31.7319 70.3873 30.8416C69.9532 29.089 70.5106 27.2552 71.1276 26.1111L71.1302 26.1062L71.133 26.1014C71.8243 24.8772 72.5799 24.1386 73.4175 23.9194C74.2967 23.6894 75.0599 24.0781 75.6253 24.6174C76.1885 25.1547 76.6359 25.9082 76.9529 26.6404Z" fill="#321F18"/>
<path fill-rule="evenodd" clip-rule="evenodd" d="M75.4321 27.6177C75.64 27.8587 75.612 28.2215 75.3694 28.4281C75.1612 28.6053 74.9095 28.9243 74.8181 29.2741C74.7384 29.5788 74.7656 29.9418 75.1705 30.344C75.3965 30.5684 75.3965 30.9323 75.1705 31.1567C74.9446 31.3812 74.5783 31.3812 74.3523 31.1567C73.6464 30.4555 73.5194 29.6691 73.6982 28.9852C73.8652 28.3465 74.2846 27.8379 74.6163 27.5554C74.8589 27.3488 75.2241 27.3767 75.4321 27.6177Z" fill="#321F18"/>
<path fill-rule="evenodd" clip-rule="evenodd" d="M108.648 33.4026C108.963 33.4573 109.174 33.7552 109.119 34.0678C108.458 37.818 106.994 41.234 105.431 43.3855C104.456 44.7268 102.891 46.404 100.898 47.8652C100.641 48.0537 100.278 47.9994 100.089 47.7441C99.899 47.4887 99.9536 47.1289 100.211 46.9404C102.104 45.5523 103.586 43.9611 104.492 42.7129C105.938 40.7233 107.344 37.4759 107.979 33.8697C108.034 33.557 108.334 33.3479 108.648 33.4026Z" fill="#321F18"/>
<path fill-rule="evenodd" clip-rule="evenodd" d="M76.1596 33.7389C76.4791 33.7441 76.7339 34.0056 76.7286 34.323C76.6541 38.8409 78.4168 45.5166 86.5655 49.0748C87.8071 49.6169 89.0232 49.9261 90.2016 50.0506C90.5194 50.0842 90.7495 50.3672 90.7158 50.6829C90.682 50.9985 90.397 51.2271 90.0793 51.1936C88.7816 51.0565 87.4498 50.7165 86.0999 50.1271C77.4016 46.3289 75.4921 39.1348 75.5717 34.3042C75.5769 33.9868 75.8402 33.7337 76.1596 33.7389Z" fill="#321F18"/>
<path fill-rule="evenodd" clip-rule="evenodd" d="M96.8853 55.1758C97.7156 54.7188 98.7762 54.3977 99.895 54.6756C100.205 54.7525 100.393 55.0646 100.316 55.3725C100.238 55.6804 99.9243 55.8676 99.6143 55.7907C98.8818 55.6087 98.1297 55.8049 97.4462 56.1812C96.7976 56.5382 96.2673 57.028 95.9689 57.3788C95.8446 57.6693 95.8051 57.9919 95.8895 58.1945C95.9392 58.3139 96.1239 58.6078 97.0682 58.567C97.5938 58.5443 98.0455 58.3413 98.5254 58.0753C98.6041 58.0317 98.6896 57.9828 98.7778 57.9325C98.9369 57.8416 99.1047 57.7457 99.2577 57.6662C99.5085 57.5358 99.789 57.4103 100.094 57.3441C100.407 57.2759 100.743 57.2712 101.096 57.3759C101.444 57.4792 101.776 57.679 102.102 57.971C102.74 58.5432 103.415 59.5261 104.204 61.0642C105.507 63.6039 106.179 67.3076 106.504 70.8446C106.831 74.3996 106.813 77.8646 106.696 79.9773C106.679 80.2943 106.406 80.537 106.087 80.5196C105.768 80.5022 105.523 80.2311 105.541 79.9142C105.655 77.8506 105.673 74.4421 105.352 70.9491C105.029 67.4382 104.37 63.9198 103.173 61.5859C102.4 60.0781 101.802 59.2506 101.327 58.8243C101.096 58.6169 100.911 58.5204 100.765 58.4773C100.625 58.4357 100.49 58.4345 100.341 58.467C100.183 58.5013 100.008 58.5734 99.7942 58.6846C99.6571 58.7558 99.5299 58.8287 99.3893 58.9093C99.2972 58.962 99.1993 59.0181 99.0892 59.0791C98.5711 59.3663 97.9236 59.6806 97.1185 59.7153C95.9338 59.7665 95.135 59.3899 94.8202 58.6338C94.546 57.9752 94.749 57.249 94.9506 56.8262C94.9703 56.7849 94.9949 56.7461 95.0238 56.7105C95.3918 56.2591 96.0547 55.6331 96.8853 55.1758Z" fill="#321F18"/>
<path fill-rule="evenodd" clip-rule="evenodd" d="M93.9395 53.4467C94.2297 53.5794 94.3567 53.9208 94.2231 54.2091C94.0868 54.503 93.9583 54.8594 93.8827 55.2132C93.8055 55.5743 93.7928 55.889 93.8467 56.1215C93.8956 56.3327 93.9894 56.4502 94.1419 56.5199C94.3257 56.6038 94.6869 56.6594 95.3458 56.5116C95.6575 56.4417 95.9672 56.636 96.0375 56.9456C96.1079 57.2552 95.9123 57.5629 95.6006 57.6328C94.8248 57.8068 94.1711 57.7983 93.6586 57.5642C93.1148 57.3159 92.8308 56.8615 92.7191 56.3793C92.6123 55.9183 92.656 55.4179 92.7508 54.9744C92.8472 54.5235 93.0064 54.0858 93.172 53.7284C93.3057 53.4401 93.6493 53.314 93.9395 53.4467Z" fill="#321F18"/>
<path fill-rule="evenodd" clip-rule="evenodd" d="M95.3461 49.2596C95.472 49.5513 95.336 49.8892 95.0423 50.0142C94.3406 50.313 93.4266 51.0343 92.8046 51.8774C92.1623 52.7482 91.9921 53.5113 92.2707 54.024C92.2924 54.0569 92.3468 54.1215 92.4183 54.1676C92.4694 54.2005 92.5106 54.2131 92.5478 54.2133C92.5478 54.2132 92.5477 54.2133 92.5478 54.2133C92.5854 54.1879 92.6397 54.1453 92.7171 54.0782C92.7931 54.0123 92.8785 53.9341 92.9799 53.8411L92.9859 53.8356C93.0838 53.7458 93.194 53.6448 93.3132 53.5394M92.583 54.2098C92.5829 54.2098 92.583 54.2098 92.583 54.2098V54.2098ZM95.3461 49.2596C95.2203 48.9679 94.8802 48.8327 94.5865 48.9577L95.3461 49.2596ZM94.5865 48.9577C93.6682 49.3487 92.5976 50.2136 91.8713 51.198L94.5865 48.9577ZM91.8713 51.198C91.1699 52.1489 90.6261 53.4502 91.2651 54.5927L91.8713 51.198ZM97.6742 53.153C96.079 52.8361 94.9242 53.6539 94.0824 54.3981C93.9712 54.4964 93.8676 54.5914 93.7681 54.6826L93.7648 54.6857C93.6662 54.776 93.5685 54.8656 93.4781 54.944C93.3889 55.0214 93.2932 55.0999 93.1972 55.1645C93.1098 55.2234 92.9744 55.3042 92.8099 55.3369C92.3938 55.4196 92.039 55.2932 91.7886 55.1319C91.5467 54.9761 91.3721 54.7705 91.2747 54.6093C91.2714 54.6038 91.2682 54.5983 91.2651 54.5927M93.3132 53.5394C94.208 52.7484 95.7376 51.5961 97.9011 52.0259C98.2144 52.0881 98.4176 52.3909 98.3549 52.7021C98.2923 53.0134 97.9875 53.2152 97.6742 53.153" fill="#321F18"/>
<path fill-rule="evenodd" clip-rule="evenodd" d="M96.4974 45.3635C96.5784 45.3445 96.6626 45.343 96.7442 45.3592L97.9011 45.5891C97.9559 45.6 98.0089 45.6187 98.0583 45.6447L103.959 48.7482C103.999 48.7691 104.036 48.7945 104.07 48.8239L113.442 56.9848L113.449 56.9903C127.758 69.811 128.96 83.2308 127.761 89.0699C127.697 89.3809 127.391 89.5815 127.078 89.5181C126.765 89.4546 126.563 89.151 126.627 88.84C127.742 83.4152 126.69 70.4043 112.677 57.8465L103.358 49.7326L97.5914 46.6998L96.6412 46.5109L92.5268 47.4789L92.2394 47.7643L90.8399 50.3308C90.8678 50.3525 90.9133 50.3809 90.9842 50.409C91.2515 50.5148 91.7706 50.5661 92.5137 50.3201C92.8169 50.2197 93.1445 50.3824 93.2455 50.6836C93.3466 50.9847 93.1828 51.3101 92.8796 51.4105C91.9566 51.7162 91.1449 51.71 90.5558 51.4767C90.263 51.3608 89.9962 51.1758 89.8271 50.9133C89.649 50.6369 89.596 50.2935 89.7294 49.9622C89.7377 49.9416 89.7472 49.9214 89.7579 49.9019L91.2621 47.1433C91.2887 47.0945 91.3223 47.0498 91.3618 47.0105L91.8249 46.5508C91.9007 46.4754 91.9962 46.4226 92.1005 46.398L96.4974 45.3635Z" fill="#321F18"/>
<path fill-rule="evenodd" clip-rule="evenodd" d="M81.9305 46.4215C81.9727 46.7361 81.7502 47.0252 81.4335 47.0672C73.9627 48.0566 54.649 52.3062 42.9582 69.4633C40.2062 73.5019 38.9548 76.9072 38.7259 79.7316C38.4981 82.5426 39.2798 84.8092 40.659 86.6036C43.4437 90.2267 48.7387 92.0047 53.3335 92.1737C53.6528 92.1855 53.9021 92.4521 53.8903 92.7693C53.8784 93.0865 53.61 93.3341 53.2907 93.3224C48.5132 93.1466 42.8159 91.3039 39.7393 87.3011C38.1878 85.2826 37.3216 82.735 37.5725 79.6393C37.8223 76.557 39.1761 72.9632 42 68.819C53.9738 51.2465 73.7093 46.9306 81.2806 45.9278C81.5973 45.8859 81.8883 46.1069 81.9305 46.4215Z" fill="#321F18"/>
<path fill-rule="evenodd" clip-rule="evenodd" d="M53.3714 92.4902C53.3869 92.8072 53.1409 93.0767 52.8217 93.0922L0.637237 95.6209C0.318097 95.6364 0.0467622 95.3919 0.0311944 95.0749C0.0156266 94.7579 0.261721 94.4883 0.580861 94.4729L52.7653 91.9441C53.0845 91.9287 53.3558 92.1732 53.3714 92.4902Z" fill="#321F18"/>
<path fill-rule="evenodd" clip-rule="evenodd" d="M164.833 87.7104C164.847 88.0275 164.6 88.2958 164.28 88.3096L67.0508 92.5176C66.7316 92.5315 66.4616 92.2856 66.4476 91.9685C66.4337 91.6514 66.6812 91.3831 67.0005 91.3693L164.23 87.1613C164.549 87.1474 164.819 87.3933 164.833 87.7104Z" fill="#321F18"/>
<path fill-rule="evenodd" clip-rule="evenodd" d="M53.1611 89.5494C53.4355 89.3868 53.7907 89.476 53.9543 89.7486C54.3225 90.3618 54.9766 91.277 55.726 92.0131C56.1005 92.3809 56.4829 92.6881 56.85 92.8928C57.2201 93.0992 57.5336 93.1788 57.7889 93.1571M53.1611 89.5494C52.8867 89.712 52.7969 90.0648 52.9606 90.3374L53.1611 89.5494ZM52.9606 90.3374C53.3654 91.0116 54.077 92.0099 54.9125 92.8305L52.9606 90.3374ZM54.9125 92.8305C55.3305 93.241 55.7954 93.6228 56.2836 93.8951L54.9125 92.8305ZM56.2836 93.8951C56.7686 94.1655 57.3184 94.3508 57.8878 94.3023L56.2836 93.8951ZM58.1804 92.3776C58.4845 92.2802 58.8105 92.4462 58.9086 92.7483C58.9962 93.0182 59.0624 93.4019 58.867 93.7528C58.655 94.1334 58.2565 94.2708 57.8878 94.3023M58.1804 92.3776C57.8763 92.475 57.7093 92.7988 57.8073 93.1009L58.1804 92.3776ZM57.8073 93.1009C57.8136 93.1202 57.8186 93.1377 57.8227 93.1535L57.8073 93.1009ZM57.8227 93.1535C57.8124 93.1548 57.801 93.156 57.7889 93.1571L57.8227 93.1535Z" fill="#321F18"/>
<path fill-rule="evenodd" clip-rule="evenodd" d="M58.0468 87.4492C58.3177 87.2808 58.6746 87.3624 58.8442 87.6314C59.6612 88.9282 61.0629 90.8863 62.2611 91.9736L62.4833 92.1754L62.4446 92.472C62.3731 93.0182 62.0585 93.8068 61.2495 94.1507C60.4312 94.4987 59.3615 94.2834 58.0361 93.4022L57.869 93.2911L57.8073 93.1009C57.7386 92.8892 57.571 92.5935 57.3194 92.2402C57.0747 91.8964 56.7776 91.5353 56.4845 91.1979C56.239 90.9153 56.0024 90.6561 55.8058 90.4407C55.7679 90.3992 55.7314 90.3593 55.6967 90.3212C55.5918 90.2059 55.4976 90.1017 55.4291 90.0208C55.3958 89.9815 55.3598 89.9375 55.3297 89.8953C55.3152 89.875 55.2933 89.8431 55.2727 89.8048C55.2725 89.8043 55.2721 89.8037 55.2717 89.8029C55.2615 89.7844 55.1982 89.6698 55.1982 89.5163C55.1982 89.1989 55.4572 88.9416 55.7767 88.9416C56.0003 88.9416 56.1943 89.0676 56.2906 89.2521C56.2971 89.26 56.305 89.2695 56.3145 89.2807C56.3675 89.3433 56.4479 89.4327 56.5548 89.5501C56.588 89.5866 56.6234 89.6254 56.6607 89.6661C56.8572 89.8814 57.1048 90.1525 57.3606 90.447C57.6646 90.797 57.9887 91.1896 58.2641 91.5764C58.486 91.8881 58.6963 92.2232 58.8328 92.5463C59.9426 93.2475 60.5303 93.2063 60.7942 93.0941C61.0014 93.006 61.1501 92.8142 61.2326 92.5888C59.9813 91.3707 58.6409 89.4754 57.8634 88.2413C57.6938 87.9722 57.776 87.6176 58.0468 87.4492Z" fill="#321F18"/>
<path fill-rule="evenodd" clip-rule="evenodd" d="M60.1987 86.2817C60.4354 86.0686 60.8013 86.0865 61.0159 86.3217C61.8173 87.2001 62.952 88.587 63.7437 89.8938C64.1365 90.5423 64.4682 91.2085 64.6172 91.8033C64.7591 92.3696 64.7818 93.0856 64.2255 93.5537C63.81 93.9032 63.3098 93.8894 62.892 93.7482C62.4166 93.5875 61.9314 93.2312 61.4807 92.8223C60.1619 91.6255 58.6926 89.5574 57.8634 88.2413C57.6938 87.9722 57.776 87.6176 58.0468 87.4492C58.3177 87.2808 58.6746 87.3624 58.8442 87.6314C59.6612 88.9282 61.0629 90.8863 62.2611 91.9736C62.6795 92.3532 63.0209 92.5776 63.2647 92.6601M60.1987 86.2817C59.9619 86.4949 59.9439 86.8583 60.1585 87.0935L60.1987 86.2817ZM60.1585 87.0935C60.9319 87.9413 62.0134 89.2667 62.7523 90.4864L60.1585 87.0935ZM62.7523 90.4864C63.1247 91.1012 63.3868 91.6517 63.4943 92.0808L62.7523 90.4864ZM63.4943 92.0808C63.6089 92.5381 63.5055 92.6532 63.4776 92.6766L63.4943 92.0808ZM63.4776 92.6766C63.4658 92.6866 63.4586 92.6898 63.4415 92.6916C63.4165 92.6941 63.3607 92.6925 63.2647 92.6601" fill="#321F18"/>
<path fill-rule="evenodd" clip-rule="evenodd" d="M55.0365 85.8295C52.0773 87.4357 49.3707 89.9774 48.0945 91.5651C47.8951 91.8131 47.5311 91.8536 47.2814 91.6555C47.0317 91.4575 46.991 91.0959 47.1903 90.8478C48.5483 89.1585 51.3693 86.5102 54.4817 84.8209C57.5539 83.1533 61.1917 82.2834 63.8949 84.7004L63.906 84.7103L63.9165 84.7208C64.905 85.7007 66.0232 87.0822 66.7236 88.421C67.0727 89.0883 67.3372 89.7809 67.409 90.4297C67.4818 91.0865 67.3601 91.7586 66.8578 92.2719L66.829 92.3013L66.7963 92.3263C66.181 92.7978 65.3571 92.6345 64.7203 92.32C64.0429 91.9855 63.3585 91.3877 62.8299 90.614C62.6505 90.3514 62.7194 89.994 62.9837 89.8157C63.2481 89.6375 63.6079 89.7059 63.7873 89.9685C64.2182 90.5992 64.7573 91.0547 65.2354 91.2908C65.7035 91.5219 65.9638 91.483 66.063 91.4326C66.2247 91.2442 66.3046 90.9688 66.2589 90.5554C66.209 90.1052 66.0135 89.5564 65.6969 88.951C65.0681 87.7492 64.0372 86.4662 63.1099 85.545C61.0034 83.6725 58.0306 84.2044 55.0365 85.8295Z" fill="#321F18"/>
<path fill-rule="evenodd" clip-rule="evenodd" d="M57.4806 72.1617C57.6788 72.4107 57.6363 72.7721 57.3857 72.969C56.6134 73.5756 55.6316 74.6652 55.18 75.9339C54.7433 77.1606 54.7926 78.5599 56.0658 79.9471C56.2811 80.1816 56.2642 80.5451 56.0281 80.759C55.792 80.9728 55.4261 80.956 55.2108 80.7215C53.6144 78.9822 53.5288 77.1248 54.0891 75.5507C54.6344 74.0188 55.7817 72.7635 56.668 72.0674C56.9186 71.8705 57.2825 71.9127 57.4806 72.1617Z" fill="#321F18"/>
</svg>
