<svg width="132" height="160" viewBox="0 0 132 160" fill="none" xmlns="http://www.w3.org/2000/svg">
<path d="M22.1232 139.061C19.9054 127.763 28.1293 101.957 32.5184 90.466C33.9814 91.1494 46.2248 88.7956 50.1519 83.1769C53.2937 78.6819 58.6294 76.9164 61.2403 76.1154C64.7054 75.0524 70.4807 75.2042 71.5586 77.7858L72.7134 80.4435C76.4868 91.1494 73.2013 107.424 70.8656 114.688L62.2414 116.206C55.7114 105.758 59.0586 93.0224 61.5484 87.9604C58.8994 91.4836 51.4611 95.1989 48.073 96.6163C47.9189 105.956 33.4425 138.15 30.2854 140.2C27.7598 141.84 23.7916 140.124 22.1232 139.061Z" fill="#321F18"/>
<path fill-rule="evenodd" clip-rule="evenodd" d="M22.9857 138.831L26.4498 142.061L27.2171 140.684L28.0913 141.159L27.4831 142.25C30.6338 141.972 33.3384 142.717 34.4843 143.231C36.103 143.956 37.506 145.726 37.7758 147.671C37.9145 148.67 37.6647 149.377 37.1587 149.803C36.6886 150.199 36.0968 150.265 35.6969 150.22C33.9087 150.117 31.1092 149.934 28.4996 149.714C25.9021 149.496 23.4383 149.238 22.3758 148.982C21.4143 148.75 20.8148 148.258 20.5062 147.641M26.6631 143.34C30.0043 142.825 32.9621 143.63 34.0716 144.127C35.3794 144.713 36.5642 146.196 36.7873 147.805C36.8952 148.582 36.683 148.909 36.5112 149.054C36.3107 149.223 36.0199 149.268 35.8036 149.241L35.7869 149.239L35.7701 149.238C33.9891 149.136 31.1903 148.952 28.5843 148.733C25.9587 148.512 23.5833 148.259 22.6126 148.025M20.6635 144.883L20.4898 145.335C20.2653 145.873 20.0891 146.806 20.5062 147.641" fill="#321F18"/>
<path fill-rule="evenodd" clip-rule="evenodd" d="M69.4157 114.39C69.6912 114.39 69.9145 114.611 69.9145 114.883V116.137C70.5225 115.857 71.2879 115.547 72.1054 115.29C73.292 114.918 74.6475 114.639 75.804 114.773C77.2001 114.935 78.2087 115.411 78.8563 116.207C79.4968 116.995 79.7189 118.017 79.7189 119.136C79.7189 120.059 79.4879 120.679 79.03 121.06C78.6312 121.392 78.1324 121.465 77.815 121.512C77.793 121.515 77.7718 121.518 77.7515 121.521C77.5669 121.549 77.3638 121.572 77.131 121.599C76.0683 121.72 74.3878 121.912 71.0311 122.947C68.4542 123.742 66.8959 124.14 65.8856 124.221C65.3719 124.262 64.9548 124.226 64.5995 124.089C64.2344 123.948 63.9859 123.72 63.7804 123.473C63.6455 123.311 63.5578 123.09 63.4944 122.887C63.4265 122.669 63.3681 122.41 63.3174 122.126C63.2158 121.557 63.1378 120.85 63.0808 120.105C62.9667 118.613 62.9334 116.923 62.9726 115.777C62.9819 115.506 63.2127 115.293 63.488 115.302C63.7634 115.311 63.9791 115.539 63.9698 115.811C63.9319 116.918 63.9641 118.572 64.0757 120.031C64.1315 120.761 64.2065 121.431 64.3 121.955C64.3469 122.217 64.3967 122.433 64.4478 122.597C64.4733 122.678 64.4972 122.741 64.5183 122.787C64.5376 122.828 64.5498 122.846 64.5516 122.848C64.6936 123.019 64.8118 123.114 64.963 123.172C65.124 123.234 65.3727 123.274 65.8047 123.239C66.6858 123.169 68.1382 122.807 70.7336 122.007C74.1848 120.943 75.948 120.742 77.0096 120.621C77.235 120.596 77.4287 120.574 77.6003 120.548C77.9841 120.49 78.2153 120.45 78.387 120.307C78.5275 120.19 78.7211 119.914 78.7211 119.136C78.7211 118.128 78.5186 117.365 78.0782 116.824C77.645 116.291 76.9165 115.893 75.6878 115.751C74.7445 115.642 73.5525 115.87 72.4077 116.229C71.2743 116.585 70.2453 117.05 69.6527 117.366L68.9168 117.758V114.883C68.9168 114.611 69.1402 114.39 69.4157 114.39Z" fill="#321F18"/>
<path fill-rule="evenodd" clip-rule="evenodd" d="M54.0862 39.3025C54.1139 39.5731 53.9141 39.8145 53.64 39.8419C49.6999 40.2348 43.8696 41.2594 39.1776 43.0459C36.8283 43.9405 34.8042 45.0114 33.4427 46.2598C32.0993 47.4915 31.4434 48.8509 31.6737 50.3771C31.8268 50.8889 32.2675 51.7487 33.1057 52.5708C33.9209 53.3704 35.1069 54.1293 36.7611 54.496C37.0299 54.5556 37.1989 54.819 37.1385 55.0843C37.0781 55.3496 36.8112 55.5163 36.5424 55.4567C34.6914 55.0464 33.3407 54.1896 32.4024 53.2692C31.4353 52.3206 30.9001 51.2984 30.7053 50.6166L30.6971 50.5881L30.6925 50.5589C30.3816 48.594 31.258 46.9189 32.7636 45.5384C34.26 44.1664 36.4194 43.0408 38.8185 42.1273C43.6234 40.2977 49.5496 39.2601 53.5397 38.8622C53.8138 38.8348 54.0585 39.032 54.0862 39.3025Z" fill="#321F18"/>
<path fill-rule="evenodd" clip-rule="evenodd" d="M32.4843 52.5058C32.7161 52.3588 33.0247 52.4251 33.1737 52.6538C34.3887 54.5196 36.796 57.5049 40.0442 60.3464C43.2933 63.1886 47.3561 65.8626 51.8798 67.1454C52.1446 67.2204 52.2976 67.4932 52.2215 67.7545C52.1454 68.0158 51.8691 68.1668 51.6043 68.0917C46.8891 66.7547 42.6976 63.9833 39.3824 61.0832C36.0663 58.1823 33.5991 55.1283 32.3344 53.1862C32.1854 52.9574 32.2525 52.6528 32.4843 52.5058Z" fill="#321F18"/>
<path fill-rule="evenodd" clip-rule="evenodd" d="M55.9723 65.4339C55.9826 65.7056 55.7677 65.9341 55.4924 65.9443C54.7446 65.9718 54.0277 66.2784 53.4158 66.6866C52.8045 67.0944 52.3326 67.5809 52.0826 67.9125C51.9181 68.1306 51.6055 68.1758 51.3845 68.0135C51.1635 67.8511 51.1177 67.5427 51.2822 67.3246C51.5969 66.9074 52.1495 66.3429 52.857 65.8708C53.5641 65.3991 54.4605 64.9969 55.4552 64.9603C55.7305 64.9501 55.962 65.1622 55.9723 65.4339Z" fill="#321F18"/>
<path fill-rule="evenodd" clip-rule="evenodd" d="M46.2902 52.559C46.4522 52.3391 46.7642 52.2904 46.9871 52.4503C53.9879 57.473 55.9166 63.1201 55.9725 65.4406C55.979 65.7124 55.7611 65.938 55.4856 65.9445C55.2102 65.9509 54.9816 65.7358 54.975 65.464C54.9279 63.5078 53.201 58.1258 46.4004 53.2467C46.1776 53.0868 46.1282 52.7789 46.2902 52.559Z" fill="#321F18"/>
<path fill-rule="evenodd" clip-rule="evenodd" d="M51.1752 50.3955C51.2254 50.6629 51.0465 50.9198 50.7756 50.9694C47.8971 51.4962 45.7991 53.7988 45.1227 54.8796C44.9779 55.111 44.6705 55.1827 44.4361 55.0398C44.2017 54.8969 44.1291 54.5935 44.2738 54.3622C45.0298 53.1542 47.3322 50.5981 50.5937 50.0012C50.8646 49.9516 51.1249 50.1282 51.1752 50.3955Z" fill="#321F18"/>
<path fill-rule="evenodd" clip-rule="evenodd" d="M61.5371 52.0787C61.7475 51.9031 62.0623 51.9291 62.2402 52.1367C62.6109 52.5693 63.3559 53.7343 63.3559 55.0148C63.3559 55.2867 63.1325 55.5071 62.857 55.5071C62.5815 55.5071 62.3581 55.2867 62.3581 55.0148C62.3581 54.0613 61.7725 53.1158 61.4783 52.7725C61.3004 52.5649 61.3268 52.2543 61.5371 52.0787Z" fill="#321F18"/>
<path fill-rule="evenodd" clip-rule="evenodd" d="M61.467 62.2784C61.8382 62.1747 62.2815 62.1481 62.6684 62.3922C63.0076 62.6061 63.1967 62.9144 63.243 63.263C63.2859 63.5864 63.2015 63.9042 63.0878 64.1707C62.8997 64.6117 62.579 65.0333 62.2995 65.3366C62.3237 65.4368 62.3692 65.5177 62.4301 65.5883C62.5317 65.7061 62.6976 65.8189 62.9455 65.917C63.4502 66.1168 64.1614 66.2051 64.9377 66.2427C65.319 66.2612 65.7025 66.2671 66.069 66.2712C66.1167 66.2717 66.1643 66.2722 66.2115 66.2727C66.5234 66.2761 66.8238 66.2793 67.087 66.2899C67.3822 66.3018 67.6717 66.3241 67.8967 66.3794C68.0065 66.4063 68.1459 66.4514 68.2678 66.5386C68.4048 66.6366 68.5443 66.8101 68.5443 67.0569C68.5443 67.4394 68.5148 67.8001 68.2571 68.0919C68.1405 68.2239 67.9999 68.3155 67.8741 68.3885C67.7991 68.432 67.705 68.4821 67.607 68.5343C67.5503 68.5645 67.4922 68.5954 67.4359 68.6262C67.3052 68.6974 67.1387 68.7464 66.9857 68.7834C66.8214 68.8233 66.6268 68.8598 66.4143 68.8936C65.9887 68.9612 65.4651 69.0216 64.917 69.0742C63.8196 69.1795 62.597 69.2559 61.8054 69.2941C61.5302 69.3073 61.2962 69.0979 61.2828 68.8263C61.2693 68.5548 61.4815 68.3238 61.7567 68.3106C62.5377 68.2729 63.7435 68.1975 64.8205 68.0942C65.3597 68.0424 65.8598 67.9843 66.2558 67.9214C66.4541 67.8899 66.6197 67.8583 66.7477 67.8272C66.8116 67.8117 66.8618 67.7974 66.8996 67.7848C66.9358 67.7727 66.9533 67.7643 66.9533 67.7643C67.0341 67.7202 67.1014 67.6845 67.1597 67.6535C67.2415 67.6101 67.3064 67.5756 67.3685 67.5396C67.4674 67.4822 67.4959 67.4552 67.505 67.4449C67.5076 67.442 67.5086 67.4404 67.5101 67.4373C67.5121 67.4332 67.5175 67.421 67.5234 67.3948C67.5282 67.3733 67.5326 67.3465 67.5362 67.3124C67.4179 67.2951 67.2558 67.2822 67.0462 67.2738C66.7993 67.2638 66.5158 67.2608 66.202 67.2574C66.1545 67.2569 66.1064 67.2563 66.0576 67.2558C65.6901 67.2516 65.2904 67.2457 64.8887 67.2262C64.0989 67.1879 63.2441 67.0961 62.5742 66.831C62.2348 66.6967 61.9113 66.506 61.6703 66.2265C61.4209 65.9374 61.2822 65.5783 61.2822 65.1598V64.955L61.4293 64.8106C61.689 64.556 62.0112 64.1569 62.1682 63.7887C62.2466 63.6048 62.2646 63.473 62.2537 63.3909C62.2462 63.3341 62.2251 63.2812 62.1311 63.2219C62.085 63.1928 61.9765 63.1594 61.7389 63.2258C61.5054 63.2911 61.2218 63.4339 60.9112 63.6382C60.2932 64.0444 59.67 64.6255 59.2874 65.0372L59.2848 65.0401L59.282 65.043C58.846 65.4976 58.1188 66.1078 57.3579 66.4096C56.9755 66.5613 56.5352 66.6549 56.1005 66.5615C55.6419 66.4629 55.2627 66.1722 55.0014 65.6988C54.8696 65.4601 54.9589 65.161 55.2008 65.031C55.4427 64.9009 55.7457 64.989 55.8775 65.2278C56.0184 65.483 56.1723 65.5692 56.3127 65.5993C56.4771 65.6346 56.7019 65.6087 56.9859 65.496C57.5565 65.2697 58.1658 64.7737 58.5548 64.3688C58.9715 63.9207 59.6537 63.2817 60.358 62.8187C60.7092 62.5877 61.0917 62.3833 61.467 62.2784Z" fill="#321F18"/>
<path fill-rule="evenodd" clip-rule="evenodd" d="M51.7198 67.1226C51.9803 67.0342 52.2642 67.171 52.3537 67.4282C52.6784 68.3602 53.4294 69.6637 54.6002 70.5315C55.7432 71.3788 57.3059 71.8301 59.3639 71.0729C61.5841 70.2559 62.6752 69.6535 63.1509 69.2612C63.2296 69.1963 63.2832 69.1437 63.3196 69.1036C63.2064 68.9591 63.1796 68.7578 63.2675 68.5832C63.3901 68.3397 63.6895 68.2404 63.9363 68.3614C64.0537 68.419 64.1826 68.5122 64.2744 68.6579C64.3712 68.8116 64.4051 68.9903 64.377 69.1699C64.3263 69.4933 64.0856 69.7735 63.7906 70.0168C63.1759 70.5237 61.9469 71.1733 59.7124 71.9955C57.3159 72.8773 55.3985 72.3548 54.001 71.3189C52.6313 70.3036 51.7816 68.8145 51.4102 67.7483C51.3206 67.4911 51.4592 67.211 51.7198 67.1226Z" fill="#321F18"/>
<path fill-rule="evenodd" clip-rule="evenodd" d="M95.2834 61.9044C95.2822 62.3914 95.1896 63.0167 94.9829 63.8127C94.1266 67.1114 91.6019 68.5834 90.3785 68.9135C90.1127 68.9852 89.8384 68.8307 89.7657 68.5684C89.6931 68.3061 89.8496 68.0354 90.1154 67.9637C91.057 67.7096 93.2644 66.4651 94.0164 63.5683C94.2118 62.8155 94.2848 62.2773 94.2857 61.9021C94.2866 61.5184 94.2121 61.3595 94.1748 61.3086C94.1579 61.2856 94.1521 61.2801 94.1116 61.2809C94.047 61.2821 93.9435 61.3117 93.8274 61.38C93.5908 61.5194 93.2846 61.443 93.1434 61.2096C93.0022 60.9761 93.0795 60.6738 93.3161 60.5345C93.5222 60.4131 93.7963 60.3022 94.0917 60.2964C94.4113 60.2901 94.748 60.4108 94.983 60.7313C95.1976 61.0239 95.2846 61.426 95.2834 61.9044Z" fill="#321F18"/>
<path fill-rule="evenodd" clip-rule="evenodd" d="M87.7936 63.3421C87.241 64.2608 86.8771 65.4613 86.716 66.289C86.664 66.556 86.4025 66.7309 86.1319 66.6796C85.8614 66.6283 85.6842 66.3702 85.7361 66.1032C85.91 65.2099 86.3039 63.8897 86.9357 62.8395C87.546 61.8249 88.5302 60.836 89.8999 61.162C90.1678 61.2257 90.3325 61.4917 90.2679 61.756C90.2033 62.0204 89.9339 62.183 89.666 62.1192C88.9944 61.9594 88.3677 62.3877 87.7936 63.3421Z" fill="#321F18"/>
<path fill-rule="evenodd" clip-rule="evenodd" d="M91.3001 58.5044C91.7186 58.4097 92.183 58.4712 92.6847 58.6823C93.3275 58.9528 93.644 59.5449 93.7831 60.1684C93.9223 60.7926 93.9077 61.5374 93.8176 62.2853C93.6367 63.7876 93.132 65.449 92.7242 66.521L92.712 66.553L92.6954 66.5831C92.331 67.2444 91.6138 68.0857 90.5352 68.8402C88.7613 70.0812 85.9959 71.0987 82.1543 70.7098L81.6625 70.66L81.7085 70.1743C81.7642 69.5856 81.9537 68.6818 82.3488 67.8493C82.6994 67.1104 83.25 66.3506 84.0867 65.9847C84.2378 65.2539 84.5172 64.317 84.9364 63.6301C85.17 63.2475 85.4931 62.8649 85.9343 62.6969C86.4279 62.5089 86.9354 62.6351 87.3933 63.0065C87.6061 63.1791 87.6369 63.4894 87.4619 63.6994C87.287 63.9095 86.9726 63.9398 86.7598 63.7672C86.5063 63.5616 86.3713 63.5859 86.2934 63.6155C86.163 63.6652 85.9855 63.8197 85.7911 64.1382C85.4102 64.7622 85.1412 65.7208 85.0163 66.432L84.9639 66.7301L84.6708 66.8187C84.0655 67.0015 83.5944 67.546 83.2523 68.2669C83.0118 68.7736 82.8583 69.3208 82.773 69.7742C86.1008 70.0018 88.4586 69.086 89.9582 68.0369C90.9123 67.3694 91.5142 66.6515 91.8027 66.1418C92.1915 65.1127 92.6604 63.5509 92.8269 62.1691C92.9114 61.4675 92.9132 60.8485 92.8087 60.3802C92.704 59.9112 92.5166 59.682 92.2934 59.5881C91.929 59.4348 91.6834 59.4279 91.5231 59.4642C91.3667 59.4996 91.2362 59.5883 91.1219 59.7334C90.8795 60.0411 90.7621 60.5415 90.7463 60.9443C90.8403 62.0603 90.5958 63.2087 90.2674 64.1754C89.935 65.1538 89.5042 65.9829 89.1995 66.459C89.0523 66.6889 88.7442 66.7575 88.5113 66.6123C88.2783 66.4671 88.2088 66.1631 88.3559 65.9332C88.6181 65.5235 89.0145 64.7658 89.3214 63.8625C89.6292 62.9563 89.8342 61.9404 89.7498 61.0007L89.7473 60.9722L89.7481 60.9435C89.7623 60.4397 89.9002 59.6801 90.3342 59.1291C90.5607 58.8415 90.8777 58.6 91.3001 58.5044Z" fill="#321F18"/>
<path fill-rule="evenodd" clip-rule="evenodd" d="M64.2883 68.4415C64.4763 68.2428 64.792 68.2321 64.9934 68.4176C66.6248 69.921 69.4384 71.792 72.551 72.5237C75.6368 73.249 78.991 72.855 81.8429 69.8816C82.0323 69.6841 82.3481 69.6756 82.5482 69.8625C82.7482 70.0494 82.7569 70.361 82.5675 70.5585C79.4191 73.8411 75.6724 74.2696 72.3198 73.4815C68.994 72.6998 66.0316 70.7215 64.3125 69.1374C64.1111 68.9518 64.1003 68.6402 64.2883 68.4415Z" fill="#321F18"/>
<path fill-rule="evenodd" clip-rule="evenodd" d="M64.0543 68.7017C64.3298 68.7017 64.5531 68.9221 64.5531 69.194C64.5531 69.9428 64.4602 71.154 64.1821 72.3889C63.907 73.6105 63.4352 74.927 62.6318 75.8223C62.4492 76.0259 62.1339 76.0448 61.9276 75.8645C61.7214 75.6842 61.7022 75.3731 61.8849 75.1695C62.5183 74.4636 62.9445 73.3459 63.2081 72.1752C63.4688 71.0178 63.5554 69.8787 63.5554 69.194C63.5554 68.9221 63.7788 68.7017 64.0543 68.7017Z" fill="#321F18"/>
<path fill-rule="evenodd" clip-rule="evenodd" d="M33.0227 72.1463C33.244 72.3082 33.2905 72.6165 33.1265 72.835C31.5743 74.9028 29.7233 78.2627 29.1866 81.6131C28.9191 83.283 28.9822 84.9245 29.5459 86.3975C30.1063 87.8615 31.1736 89.1926 32.9777 90.2349C33.2155 90.3723 33.2954 90.6739 33.1562 90.9085C33.017 91.1432 32.7114 91.2221 32.4737 91.0847C30.4831 89.9346 29.2578 88.4314 28.6126 86.7454C27.9707 85.0684 27.9152 83.2443 28.2011 81.4594C28.7712 77.9001 30.7149 74.3934 32.3248 72.2488C32.4889 72.0303 32.8013 71.9844 33.0227 72.1463Z" fill="#321F18"/>
<path fill-rule="evenodd" clip-rule="evenodd" d="M129.363 51.0478C129.599 51.1877 129.676 51.4901 129.534 51.7233L127.738 54.6773C127.596 54.9104 127.29 54.986 127.054 54.8461C126.818 54.7062 126.741 54.4038 126.883 54.1707L128.679 51.2167C128.82 50.9835 129.127 50.9079 129.363 51.0478Z" fill="#321F18"/>
<path fill-rule="evenodd" clip-rule="evenodd" d="M131.999 55.7932C132.012 56.0648 131.8 56.2953 131.524 56.3079L128.212 56.4599C127.936 56.4726 127.703 56.2626 127.69 55.991C127.677 55.7194 127.89 55.4889 128.165 55.4763L131.478 55.3243C131.753 55.3116 131.987 55.5216 131.999 55.7932Z" fill="#321F18"/>
<path fill-rule="evenodd" clip-rule="evenodd" d="M127.206 57.3816C127.424 57.2158 127.737 57.2561 127.905 57.4717L129.901 60.0318C130.069 60.2473 130.028 60.5564 129.81 60.7222C129.591 60.888 129.278 60.8477 129.11 60.6322L127.115 58.072C126.947 57.8565 126.987 57.5474 127.206 57.3816Z" fill="#321F18"/>
<path fill-rule="evenodd" clip-rule="evenodd" d="M6.88424 149.052H62.2821C63.1087 149.052 63.7787 149.713 63.7787 150.529C63.7787 151.345 63.1087 152.006 62.2821 152.006H9.87743V176.523C9.87743 177.339 9.20739 178 8.38084 178C7.55429 178 6.88424 177.339 6.88424 176.523V149.052Z" fill="#321F18"/>
<path fill-rule="evenodd" clip-rule="evenodd" d="M54.154 123.134H99.7587C100.585 123.134 101.255 123.796 101.255 124.611C101.255 125.427 100.585 126.088 99.7587 126.088H57.1472V156.306C57.1472 157.121 56.4771 157.783 55.6506 157.783C54.824 157.783 54.154 157.121 54.154 156.306V123.134Z" fill="#321F18"/>
<path fill-rule="evenodd" clip-rule="evenodd" d="M91.6304 86.8034H128.907C129.734 86.8034 130.404 87.4647 130.404 88.2805C130.404 89.0962 129.734 89.7575 128.907 89.7575H94.6236V130.616C94.6236 131.431 93.9535 132.093 93.127 132.093C92.3004 132.093 91.6304 131.431 91.6304 130.616V86.8034Z" fill="#321F18"/>
<path fill-rule="evenodd" clip-rule="evenodd" d="M122.584 59.1504C123.41 59.1504 124.08 59.8117 124.08 60.6274V94.209C124.08 95.0247 123.41 95.686 122.584 95.686C121.757 95.686 121.087 95.0247 121.087 94.209V60.6274C121.087 59.8117 121.757 59.1504 122.584 59.1504Z" fill="#321F18"/>
<path fill-rule="evenodd" clip-rule="evenodd" d="M122.584 47.4328C123.41 47.4328 124.08 48.0941 124.08 48.9098V51.7654C124.08 52.5811 123.41 53.2424 122.584 53.2424C121.757 53.2424 121.087 52.5811 121.087 51.7654V48.9098C121.087 48.0941 121.757 47.4328 122.584 47.4328Z" fill="#321F18"/>
<path fill-rule="evenodd" clip-rule="evenodd" d="M37.0994 58.2379C37.1322 58.5079 36.937 58.7529 36.6634 58.7853L6.23095 62.3854C5.67667 63.5977 5.16128 65.5257 5.31584 67.6106C5.4761 69.7725 6.35447 72.099 8.66643 73.9984L52.6313 69.0074C52.905 68.9763 53.1524 69.1701 53.1839 69.4402C53.2154 69.7104 53.019 69.9545 52.7453 69.9856L8.36454 75.0238L8.20222 74.8955C5.52358 72.7776 4.50184 70.125 4.32077 67.6825C4.14093 65.2564 4.78817 63.0337 5.45042 61.7108L5.57009 61.4718L36.5447 57.8076C36.8183 57.7753 37.0666 57.9679 37.0994 58.2379Z" fill="#321F18"/>
<path fill-rule="evenodd" clip-rule="evenodd" d="M83.5066 66.8008C83.5329 67.0715 83.3319 67.312 83.0577 67.338L67.8968 68.7758C67.6225 68.8018 67.3788 68.6035 67.3525 68.3328C67.3261 68.0622 67.5271 67.8217 67.8013 67.7957L82.9623 66.3579C83.2365 66.3318 83.4802 66.5302 83.5066 66.8008Z" fill="#321F18"/>
<path fill-rule="evenodd" clip-rule="evenodd" d="M104.056 51.3667L118.382 54.6651L117.592 55.2985C117.336 55.5035 117.028 55.9079 116.948 56.4164C116.872 56.8968 116.987 57.5412 117.696 58.284L118.175 58.7856L104.144 65.0623L94.1264 65.7498C93.8515 65.7687 93.6132 65.5641 93.5941 65.2928C93.575 65.0216 93.7823 64.7864 94.0572 64.7675L103.895 64.0923L116.537 58.4371C116 57.6785 115.857 56.9312 115.962 56.2646C116.026 55.8624 116.177 55.5071 116.364 55.2116L103.983 52.3609L51.5753 56.6679C51.3008 56.6905 51.0597 56.4891 51.0368 56.2181C51.0139 55.9472 51.218 55.7092 51.4925 55.6866L104.056 51.3667Z" fill="#321F18"/>
<path d="M1.14089 61.9913L5.64086 61.5136C2.51996 68.4138 6.09742 73.1081 8.38103 74.9346L3.12897 75.6928C-1.26085 70.4166 -0.129219 64.5117 1.14089 61.9913Z" fill="#321F18"/>
<path d="M117.812 58.9534C116.142 57.233 117.081 55.1841 117.776 54.5224L124.118 56.0668L117.812 58.9534Z" fill="#321F18"/>
<path fill-rule="evenodd" clip-rule="evenodd" d="M103.768 64.7677C99.5961 59.4138 102.041 53.7269 103.771 51.5592L104.555 52.1685C102.972 54.1513 100.779 59.317 104.559 64.1675L103.768 64.7677Z" fill="#321F18"/>
<path fill-rule="evenodd" clip-rule="evenodd" d="M80.2477 14.3248C80.5047 14.2267 80.7935 14.3528 80.8929 14.6064C80.9687 14.7997 80.9964 15.0829 81.0035 15.367C81.0111 15.6732 80.9953 16.0504 80.9496 16.4709C80.8586 17.3071 80.6462 18.3402 80.2435 19.3546C80.0186 20.0439 79.8723 20.9405 80.0691 21.8023C80.2613 22.6438 80.7875 23.49 81.9921 24.1061C82.7001 24.4296 83.1838 24.8972 83.3731 25.475C83.5646 26.0599 83.4207 26.6555 83.0822 27.1541C82.4714 28.0541 81.1928 28.7204 79.6182 28.8083C78.563 34.8497 75.5671 37.7765 72.5999 39.2638C71.0988 40.0161 69.6246 40.3907 68.4584 40.6276C68.1668 40.6868 67.8937 40.7376 67.6453 40.7831C67.6064 40.7903 67.5682 40.7973 67.5307 40.8041C67.3268 40.8414 67.1433 40.875 66.9776 40.9079C66.7809 40.9469 66.6214 40.9826 66.4955 41.0184C66.3637 41.0558 66.2992 41.0851 66.2747 41.1C66.0401 41.2425 65.7328 41.1704 65.5884 40.9388C65.444 40.7072 65.5171 40.404 65.7517 40.2615C65.8922 40.1761 66.0599 40.1175 66.2195 40.0722C66.385 40.0251 66.5761 39.9832 66.781 39.9426C66.9547 39.9081 67.147 39.8729 67.3506 39.8356C67.3877 39.8289 67.4252 39.822 67.463 39.8151C67.7101 39.7697 67.9755 39.7204 68.2573 39.6632C69.3843 39.4342 70.7605 39.0813 72.1481 38.3859C74.892 37.0106 77.7587 34.2585 78.6996 28.2503L78.7658 27.8282L79.1985 27.8332C80.7326 27.8509 81.8247 27.2375 82.2533 26.6061C82.462 26.2986 82.5011 26.0142 82.4237 25.7778C82.3449 25.5372 82.1117 25.2439 81.5647 24.9959L81.5544 24.9912L81.5443 24.9861C80.0675 24.2345 79.3526 23.143 79.0958 22.0188C78.8445 20.9185 79.0394 19.8255 79.2991 19.0366L79.3038 19.0224L79.3093 19.0084C79.6771 18.0866 79.8737 17.1363 79.9575 16.3658C79.9994 15.9811 80.0124 15.6476 80.0061 15.3912C80.0029 15.2628 79.9949 15.1584 79.9845 15.0794C79.974 14.9996 79.9635 14.9654 79.9624 14.9619C79.8631 14.7083 79.9907 14.4229 80.2477 14.3248Z" fill="#321F18"/>
<path d="M76.2791 23.8744C76.6542 23.8787 76.9635 23.4323 76.9701 22.8771C76.9767 22.322 76.678 21.8682 76.303 21.8639C75.9279 21.8596 75.6186 22.3062 75.612 22.8614C75.6054 23.4165 75.9041 23.8701 76.2791 23.8744Z" fill="#321F18"/>
<path fill-rule="evenodd" clip-rule="evenodd" d="M75.9012 19.5082C75.4361 19.6106 75.0259 19.9039 74.8 20.1422C74.6118 20.3408 74.2961 20.3512 74.0949 20.1655C73.8937 19.9798 73.8831 19.6682 74.0713 19.4696C74.3968 19.1262 74.9752 18.7032 75.6839 18.5472C76.4263 18.3837 77.2808 18.5234 78.0541 19.2716C78.2508 19.462 78.254 19.7737 78.0611 19.9678C77.8682 20.162 77.5523 20.1651 77.3556 19.9747C76.837 19.473 76.3326 19.4132 75.9012 19.5082Z" fill="#321F18"/>
<path fill-rule="evenodd" clip-rule="evenodd" d="M70.4181 30.7198C70.6491 30.5716 70.9581 30.6363 71.1083 30.8643C71.587 31.5912 72.0309 31.9662 72.5316 32.0979C73.0404 32.2316 73.7282 32.1464 74.7667 31.6692C75.0164 31.5544 75.3132 31.6612 75.4295 31.9077C75.5458 32.1542 75.4376 32.447 75.1878 32.5618C74.065 33.0777 73.1159 33.2705 72.2747 33.0493C71.4256 32.826 70.8065 32.213 70.2717 31.4009C70.1216 31.1729 70.1871 30.8679 70.4181 30.7198Z" fill="#321F18"/>
<path fill-rule="evenodd" clip-rule="evenodd" d="M62.6006 19.8973C62.8514 20.01 62.962 20.302 62.8478 20.5494C62.7597 20.7403 62.6784 21.0621 62.7208 21.3707C62.7595 21.6521 62.8979 21.928 63.2806 22.1208C63.526 22.2444 63.6233 22.541 63.4981 22.7831C63.3728 23.0253 63.0723 23.1214 62.8269 22.9978C62.1183 22.6407 61.8093 22.0641 61.7321 21.5032C61.6588 20.9695 61.7931 20.4592 61.9399 20.1413C62.0541 19.8938 62.3499 19.7846 62.6006 19.8973Z" fill="#321F18"/>
<path d="M50.7615 15.1197C49.4756 22.0626 53.4989 27.289 56.4156 31.3069C59.5308 29.6459 64.6364 25.6962 62.6782 25.2699C60.6201 24.8218 58.4494 19.2815 60.4481 17.5867C62.7929 15.5982 64.9067 18.6068 65.3096 20.8881L67.1983 17.6647C66.6641 15.4101 66.4548 11.4552 69.8896 13.6723C73.3244 15.8895 78.3627 15.3087 80.4526 14.7412C84.5732 11.8304 90.9751 5.04077 83.6182 1.16889C77.4991 -2.05146 69.5366 2.01992 64.6761 5.67829C61.3851 4.82085 52.5147 5.65324 50.7615 15.1197Z" fill="#321F18"/>
<path fill-rule="evenodd" clip-rule="evenodd" d="M56.3258 30.4632C56.5377 30.2894 56.8522 30.3182 57.0283 30.5273C57.7889 31.4311 58.3854 32.2898 58.7724 33.3328C59.1596 34.3762 59.3248 35.5695 59.2775 37.1315C59.2693 37.4033 59.0394 37.6171 58.764 37.6089C58.4886 37.6008 58.272 37.3739 58.2802 37.1021C58.3249 35.624 58.1666 34.5636 57.8355 33.6714C57.5043 32.7787 56.9875 32.02 56.2608 31.1565C56.0847 30.9473 56.1138 30.6369 56.3258 30.4632Z" fill="#321F18"/>
<path fill-rule="evenodd" clip-rule="evenodd" d="M55.2359 38.0993C55.0364 38.9755 55.2167 40.1834 55.4688 41.0512C55.5447 41.3125 55.3916 41.5852 55.1268 41.6601C54.8619 41.7351 54.5857 41.5839 54.5097 41.3225C54.241 40.3974 54.0084 38.9991 54.2625 37.8834C54.3913 37.3178 54.6601 36.7623 55.1799 36.4109C55.7079 36.054 56.3968 35.9733 57.22 36.1591C59.1181 36.5873 61.9593 37.7138 64.2574 38.9818C65.4062 39.6156 66.4474 40.2999 67.1736 40.9689C67.5359 41.3027 67.8403 41.6512 68.0357 42.0064C68.2314 42.3622 68.3411 42.7701 68.2268 43.1842C68.1544 43.4465 67.8802 43.6013 67.6144 43.5298C67.3485 43.4583 67.1917 43.1877 67.2641 42.9254C67.2873 42.8415 67.2828 42.7014 67.1589 42.4762C67.0347 42.2504 66.8143 41.9849 66.4928 41.6887C65.8514 41.0979 64.8894 40.4585 63.7706 39.8412C61.5334 38.6069 58.7815 37.5215 56.9977 37.119C56.3482 36.9725 55.9706 37.0699 55.7437 37.2233C55.5086 37.3822 55.3339 37.669 55.2359 38.0993Z" fill="#321F18"/>
<path fill-rule="evenodd" clip-rule="evenodd" d="M67.3798 45.5228C67.567 45.3233 67.8827 45.3113 68.0848 45.4961C69.4561 46.7492 70.3262 47.8055 70.8995 48.9501C71.4721 50.0935 71.7301 51.2893 71.932 52.7834C71.9684 53.0529 71.7765 53.3006 71.5034 53.3365C71.2303 53.3724 70.9794 53.1831 70.943 52.9136C70.7458 51.4537 70.505 50.3848 70.005 49.3864C69.5057 48.3894 68.7295 47.4272 67.407 46.2186C67.2048 46.0339 67.1926 45.7224 67.3798 45.5228Z" fill="#321F18"/>
</svg>
