<svg width="24" height="24" viewBox="0 0 24 24" fill="none" xmlns="http://www.w3.org/2000/svg">
<path d="M20.0049 5.995H19.0049V7.995H20.0049V15.995H19.0049V17.995H20.0049C21.1079 17.995 22.0049 17.098 22.0049 15.995V7.995C22.0049 6.893 21.1069 5.995 20.0049 5.995ZM6.00488 9.995H14.9999V13.995H6.00488V9.995Z" fill="#C86135"/>
<path d="M17.0049 17.995V5.995V4H19.9999V2H11.9999V4H15.0049V5.995H4.00488C2.90188 5.995 2.00488 6.892 2.00488 7.995V15.995C2.00488 17.098 2.90188 17.995 4.00488 17.995H15.0049V20H11.9999V22H19.9999V20H17.0049V17.995ZM4.00488 15.995V7.995H15.0049V15.995H4.00488Z" fill="#C86135"/>
</svg>
