<svg width="20" height="20" viewBox="0 0 20 20" fill="none" xmlns="http://www.w3.org/2000/svg">
<path d="M4.51599 12.323L3.02599 18.775C2.93399 19.174 3.09399 19.589 3.43199 19.822C3.60299 19.94 3.80099 20 3.99999 20C4.19299 20 4.38699 19.944 4.55499 19.832L9.99999 16.202L15.445 19.832C15.793 20.064 16.25 20.055 16.59 19.808C16.928 19.561 17.077 19.128 16.962 18.726L15.133 12.326L19.669 8.244C19.966 7.976 20.075 7.558 19.947 7.18C19.818 6.802 19.477 6.536 19.079 6.504L13.378 6.05L10.911 0.589C10.75 0.23 10.393 0 9.99999 0C9.60699 0 9.24999 0.23 9.08899 0.589L6.62199 6.05L0.920986 6.503C0.528986 6.534 0.191986 6.791 0.0599862 7.16C-0.0740138 7.529 0.0219863 7.942 0.301986 8.216L4.51599 12.323ZM7.36899 7.997C7.73199 7.968 8.05199 7.744 8.20099 7.411L9.99999 3.43L11.799 7.411C11.948 7.744 12.268 7.968 12.631 7.997L16.603 8.312L13.332 11.256C13.048 11.512 12.935 11.906 13.039 12.274L14.292 16.659L10.556 14.168C10.22 13.943 9.78299 13.943 9.44699 14.168L5.54299 16.771L6.59299 12.225C6.67099 11.885 6.56699 11.528 6.31699 11.285L3.27899 8.323L7.36899 7.997Z" fill="#F9DED6"/>
</svg>
