<svg width="40" height="40" viewBox="0 0 40 40" fill="none" xmlns="http://www.w3.org/2000/svg">
<path fill-rule="evenodd" clip-rule="evenodd" d="M25.5739 15.3479C25.7692 15.1527 25.7692 14.8361 25.5739 14.6408C25.3787 14.4456 25.0621 14.4456 24.8668 14.6408L20.0224 19.4853L15.3145 14.7774C15.1192 14.5821 14.8027 14.5821 14.6074 14.7774C14.4121 14.9726 14.4121 15.2892 14.6074 15.4845L19.3153 20.1924L14.6074 24.9003C14.4121 25.0955 14.4121 25.4121 14.6074 25.6074C14.8026 25.8026 15.1192 25.8026 15.3145 25.6074L20.0224 20.8995L24.8668 25.7439C25.0621 25.9392 25.3787 25.9392 25.5739 25.7439C25.7692 25.5486 25.7692 25.2321 25.5739 25.0368L20.7295 20.1924L25.5739 15.3479Z" fill="#C86135"/>
</svg>
